<svg width="18" height="18" viewBox="0 0 18 18" fill="none" xmlns="http://www.w3.org/2000/svg">
<path d="M16.7421 13.1923L10.4489 3.10501C10.2966 2.85834 10.0839 2.65462 9.83087 2.51317C9.57784 2.37171 9.29288 2.2972 9.00299 2.29669C8.71311 2.29619 8.42789 2.3697 8.17436 2.51027C7.92084 2.65084 7.7074 2.85381 7.55427 3.09995L1.2509 13.2041C1.10434 13.4612 1.02729 13.752 1.02734 14.0479C1.0274 14.3437 1.10456 14.6345 1.25122 14.8915C1.39788 15.1485 1.60898 15.3628 1.8637 15.5133C2.11842 15.6639 2.40798 15.7455 2.70383 15.75H15.296C15.5929 15.7453 15.8834 15.663 16.1388 15.5113C16.3941 15.3596 16.6053 15.1438 16.7515 14.8853C16.8977 14.6268 16.9737 14.3346 16.9721 14.0376C16.9704 13.7406 16.8912 13.4492 16.7421 13.1923Z" fill="#FFD54F"/>
<path d="M8.4864 10.476L8.33677 8.23949C8.30752 7.78949 8.15396 7.06217 8.49765 6.69655C8.75921 6.4153 9.37852 6.36692 9.5664 6.75674C9.72615 7.2148 9.76148 7.70706 9.66877 8.18324L9.46852 10.4856C9.45991 10.7022 9.41247 10.9156 9.32846 11.1155C9.29539 11.1802 9.24525 11.2347 9.18347 11.2729C9.1217 11.3111 9.05063 11.3318 8.97798 11.3325C8.90533 11.3333 8.83386 11.3141 8.7713 11.2772C8.70874 11.2402 8.65749 11.1869 8.62308 11.1229C8.54392 10.9157 8.49779 10.6974 8.4864 10.476ZM9.00446 13.5489C8.82708 13.5479 8.65674 13.4794 8.5281 13.3572C8.39947 13.2351 8.3222 13.0685 8.31203 12.8915C8.30185 12.7144 8.35953 12.54 8.47332 12.404C8.58712 12.2679 8.74848 12.1803 8.92458 12.159C9.01919 12.1475 9.11514 12.1556 9.20651 12.1827C9.29788 12.2097 9.38274 12.2552 9.45584 12.3164C9.52894 12.3775 9.58874 12.453 9.63155 12.5381C9.67436 12.6233 9.69926 12.7163 9.70473 12.8114C9.7102 12.9066 9.69611 13.0018 9.66334 13.0913C9.63057 13.1808 9.57981 13.2626 9.51419 13.3317C9.44857 13.4008 9.36949 13.4557 9.28182 13.4931C9.19415 13.5305 9.09975 13.5495 9.00446 13.5489Z" fill="#1A0936"/>
</svg>
