<svg width="14" height="14" viewBox="0 0 14 14" fill="none" xmlns="http://www.w3.org/2000/svg">
<path fill-rule="evenodd" clip-rule="evenodd" d="M7 0.5C10.5841 0.5 13.5 3.4159 13.5 7C13.5 10.5841 10.5841 13.5 7 13.5C3.4159 13.5 0.5 10.5841 0.5 7C0.5 3.4159 3.4159 0.5 7 0.5ZM11.056 10.25C10.5695 10.8584 9.95227 11.3495 9.25017 11.6871C8.54806 12.0246 7.77902 12.1998 7 12.1998C6.22098 12.1998 5.45194 12.0246 4.74983 11.6871C4.04773 11.3495 3.43055 10.8584 2.944 10.25C3.43055 9.6416 4.04773 9.15045 4.74983 8.81293C5.45194 8.47541 6.22098 8.30016 7 8.30016C7.77902 8.30016 8.54806 8.47541 9.25017 8.81293C9.95227 9.15045 10.5695 9.6416 11.056 10.25ZM7 7C7.25608 7 7.50965 6.94956 7.74623 6.85156C7.98282 6.75357 8.19778 6.60993 8.37886 6.42886C8.55993 6.24778 8.70357 6.03282 8.80157 5.79623C8.89956 5.55965 8.95 5.30608 8.95 5.05C8.95 4.79392 8.89956 4.54035 8.80157 4.30377C8.70357 4.06718 8.55993 3.85222 8.37886 3.67114C8.19778 3.49007 7.98282 3.34643 7.74623 3.24844C7.50965 3.15044 7.25608 3.1 7 3.1C6.48283 3.1 5.98684 3.30545 5.62114 3.67114C5.25545 4.03684 5.05 4.53283 5.05 5.05C5.05 5.56717 5.25545 6.06316 5.62114 6.42886C5.98684 6.79455 6.48283 7 7 7Z" fill="white"/>
</svg>
