<svg width="32" height="29" viewBox="0 0 32 29" fill="none" xmlns="http://www.w3.org/2000/svg">
<g filter="url(#filter0_d_3_439)">
<path d="M22.3086 15.8201C22.1154 15.6913 21.879 15.6445 21.6513 15.69C21.4236 15.7356 21.2234 15.8697 21.0946 16.0629C20.9658 16.2561 20.919 16.4925 20.9645 16.7202C21.0101 16.9479 21.1442 17.1481 21.3374 17.2769C21.5306 17.4057 21.767 17.4525 21.9947 17.407C22.1074 17.3844 22.2146 17.3399 22.3102 17.2759C22.4057 17.212 22.4877 17.1298 22.5514 17.0341C22.6152 16.9385 22.6595 16.8312 22.6818 16.7184C22.7041 16.6056 22.704 16.4895 22.6815 16.3768C22.6589 16.2641 22.6144 16.1569 22.5504 16.0614C22.4865 15.9658 22.4043 15.8838 22.3086 15.8201ZM26.3411 12.8919H26.0024V10.4235C26.0015 9.76837 25.7559 9.13722 25.3138 8.65379C24.8716 8.17037 24.2648 7.86955 23.6124 7.81032L22.9881 5.80744C22.9198 5.58833 22.809 5.38481 22.6621 5.20851C22.5152 5.03221 22.335 4.88657 22.1318 4.77993C21.9285 4.67328 21.7063 4.60771 21.4778 4.58697C21.2492 4.56622 21.0188 4.5907 20.7997 4.659L18.3532 5.422L16.5139 3.30625C16.2107 2.956 15.7809 2.7404 15.3188 2.70677C14.8568 2.67314 14.4003 2.82423 14.0495 3.12688L8.64507 7.7985H6.75244C6.0565 7.79931 5.38929 8.07614 4.89718 8.56824C4.40507 9.06035 4.12825 9.72756 4.12744 10.4235V22.6735C4.12825 23.3694 4.40507 24.0367 4.89718 24.5288C5.38929 25.0209 6.0565 25.2977 6.75244 25.2985H23.3774C24.0734 25.2977 24.7406 25.0209 25.2327 24.5288C25.7248 24.0367 26.0016 23.3694 26.0024 22.6735V20.2051H26.3411C26.747 20.2047 27.1362 20.0432 27.4233 19.7561C27.7104 19.4691 27.8719 19.0798 27.8723 18.6739V14.4231C27.8719 14.0172 27.7104 13.6279 27.4233 13.3409C27.1362 13.0538 26.747 12.8923 26.3411 12.8919ZM21.1904 5.91244C21.2448 5.89543 21.3021 5.88931 21.359 5.89444C21.4158 5.89956 21.4711 5.91584 21.5216 5.94233C21.5721 5.96882 21.617 6.005 21.6535 6.04882C21.6901 6.09263 21.7176 6.14322 21.7346 6.19769L22.2338 7.7985H15.1406L21.1904 5.91244ZM14.9079 4.12C14.9954 4.04469 15.1093 4.00722 15.2245 4.01584C15.3397 4.02445 15.4467 4.07844 15.5221 4.16594L16.9847 5.84857L11.0111 7.711C10.9491 7.73127 10.8905 7.76077 10.8374 7.7985H10.6523L14.9079 4.12ZM24.6899 22.6735C24.6896 23.0215 24.5512 23.3551 24.3051 23.6012C24.0591 23.8473 23.7254 23.9857 23.3774 23.986H6.75244C6.40445 23.9857 6.07081 23.8473 5.82475 23.6012C5.57868 23.3551 5.44029 23.0215 5.43994 22.6735V10.4235C5.44029 10.0755 5.57868 9.74188 5.82475 9.49581C6.07081 9.24974 6.40445 9.11135 6.75244 9.111H23.3774C23.7254 9.11135 24.0591 9.24974 24.3051 9.49581C24.5512 9.74188 24.6896 10.0755 24.6899 10.4235V12.8919H19.9081C19.5021 12.8923 19.1129 13.0538 18.8258 13.3409C18.5388 13.6279 18.3773 14.0172 18.3768 14.4231V18.6739C18.3773 19.0798 18.5388 19.4691 18.8258 19.7561C19.1129 20.0432 19.5021 20.2047 19.9081 20.2051H24.6899V22.6735ZM26.5598 18.6739C26.5598 18.7319 26.5368 18.7875 26.4957 18.8286C26.4547 18.8696 26.3991 18.8926 26.3411 18.8926H25.3589L25.3458 18.8913C25.3414 18.8913 25.3379 18.8922 25.3335 18.8926H19.9085C19.8505 18.8926 19.7949 18.8696 19.7538 18.8286C19.7128 18.7875 19.6898 18.7319 19.6898 18.6739V14.4231C19.6898 14.3651 19.7128 14.3095 19.7538 14.2684C19.7949 14.2274 19.8505 14.2044 19.9085 14.2044H25.3335C25.3379 14.2044 25.3418 14.2057 25.3462 14.2057L25.3589 14.2044H26.3411C26.3991 14.2044 26.4547 14.2274 26.4957 14.2684C26.5368 14.3095 26.5598 14.3651 26.5598 14.4231V18.6739Z" fill="url(#paint0_linear_3_439)"/>
</g>
<defs>
<filter id="filter0_d_3_439" x="0.127441" y="-1.29785" width="31.7451" height="30.5964" filterUnits="userSpaceOnUse" color-interpolation-filters="sRGB">
<feFlood flood-opacity="0" result="BackgroundImageFix"/>
<feColorMatrix in="SourceAlpha" type="matrix" values="0 0 0 0 0 0 0 0 0 0 0 0 0 0 0 0 0 0 127 0" result="hardAlpha"/>
<feOffset/>
<feGaussianBlur stdDeviation="2"/>
<feComposite in2="hardAlpha" operator="out"/>
<feColorMatrix type="matrix" values="0 0 0 0 0.3625 0 0 0 0 0.65575 0 0 0 0 1 0 0 0 0.67 0"/>
<feBlend mode="normal" in2="BackgroundImageFix" result="effect1_dropShadow_3_439"/>
<feBlend mode="normal" in="SourceGraphic" in2="effect1_dropShadow_3_439" result="shape"/>
</filter>
<linearGradient id="paint0_linear_3_439" x1="3.99988" y1="-12" x2="21.4999" y2="39.5" gradientUnits="userSpaceOnUse">
<stop stop-color="white"/>
<stop offset="1" stop-color="#3146FF"/>
</linearGradient>
</defs>
</svg>
