<svg width="29" height="28" viewBox="0 0 29 28" fill="none" xmlns="http://www.w3.org/2000/svg">
<g clip-path="url(#clip0_3_401)">
<g clip-path="url(#clip1_3_401)">
<circle cx="17" cy="9" r="7" fill="#172994"/>
<g filter="url(#filter0_d_3_401)">
<path d="M24.5919 23.2126L20.6204 19.3589C20.3631 19.1092 20.0236 18.9754 19.6636 18.98C19.5459 18.9818 19.4289 18.9988 19.3157 19.0308L17.5228 17.291C18.9417 15.1447 19.2287 12.4165 18.2895 10.0224L18.9047 9.06372C19.0633 9.10224 19.226 9.12175 19.3892 9.12181C20.5255 9.12181 21.45 8.19734 21.45 7.06103C21.45 5.92477 20.5255 5.00034 19.3892 5.00034C18.2529 5.00034 17.3285 5.92477 17.3285 7.06103C17.3285 7.53128 17.4872 7.96492 17.7533 8.31211L17.5625 8.60937C17.4088 8.3726 17.2425 8.14418 17.0646 7.92505C15.7305 6.2836 13.837 5.25995 11.733 5.04258C9.62894 4.82524 7.56631 5.44021 5.92486 6.77426C4.28337 8.10827 3.25964 10.0017 3.0423 12.1057C2.84804 13.9862 3.3192 15.8335 4.37386 17.3768C3.57439 17.6603 3.00011 18.4238 3.00011 19.3193C3.00011 20.4556 3.92454 21.3801 5.0608 21.3801C6.01862 21.3801 6.82587 20.7232 7.05584 19.8362C7.9838 20.3548 9.01625 20.6839 10.1054 20.7964C10.3827 20.8251 10.6591 20.8393 10.934 20.8393C12.4697 20.8392 13.9559 20.3963 15.2411 19.5558L17.0179 21.2619C16.9409 21.4384 16.9026 21.6294 16.9058 21.8219C16.9112 22.1817 17.056 22.5173 17.3132 22.7669L21.2847 26.6208C21.5456 26.8738 21.8835 26.9998 22.2211 26.9998C22.5724 26.9998 22.9232 26.8634 23.1865 26.5921L24.6204 25.1144C25.1368 24.5823 25.124 23.7292 24.5919 23.2126ZM19.3892 6.37534C19.7673 6.37534 20.075 6.68295 20.075 7.06108C20.075 7.43924 19.7673 7.7469 19.3892 7.7469C19.011 7.7469 18.7034 7.43924 18.7034 7.06108C18.7034 6.68295 19.011 6.37534 19.3892 6.37534ZM18.2288 19.892L17.9142 20.2163L16.3331 18.6982C16.4466 18.592 16.5565 18.4834 16.6624 18.372L18.2288 19.892ZM4.41 12.247C4.58961 10.5083 5.43553 8.94367 6.79202 7.84126C7.96979 6.884 9.4098 6.37486 10.9069 6.37486C11.134 6.37486 11.3627 6.38659 11.5917 6.41027C13.3304 6.58992 14.895 7.43585 15.9975 8.79229C16.2788 9.13816 16.524 9.51185 16.7294 9.90754L14.317 13.6667C14.1071 13.5964 13.8872 13.5606 13.6658 13.5606C13.4252 13.5604 13.1866 13.6024 12.9606 13.6849L11.6083 12.2316C11.7472 11.9496 11.8193 11.6394 11.819 11.3251C11.819 10.1888 10.8945 9.26438 9.75823 9.26438C8.62197 9.26438 7.69754 10.1888 7.69754 11.3251C7.69754 11.8122 7.86782 12.2601 8.15146 12.6132L5.59336 16.7214C4.66364 15.4227 4.24444 13.8495 4.41 12.247ZM13.6658 14.9355C14.0439 14.9355 14.3516 15.2431 14.3516 15.6212C14.3516 15.9994 14.0439 16.307 13.6658 16.307C13.2877 16.307 12.9801 15.9994 12.9801 15.6212C12.98 15.2431 13.2877 14.9355 13.6658 14.9355ZM9.07254 11.325C9.07254 10.9469 9.38015 10.6393 9.75828 10.6393C10.1364 10.6393 10.4441 10.9469 10.4441 11.325C10.4441 11.7032 10.1364 12.0108 9.75828 12.0108C9.38011 12.0109 9.07254 11.7032 9.07254 11.325ZM5.06085 20.0051C4.68272 20.0051 4.37511 19.6975 4.37511 19.3193C4.37511 18.9412 4.68272 18.6335 5.06085 18.6335C5.43897 18.6335 5.74663 18.9412 5.74663 19.3193C5.74663 19.6975 5.43897 20.0051 5.06085 20.0051ZM10.9315 19.4641C10.7044 19.4641 10.4758 19.4524 10.2467 19.4287C8.85202 19.2847 7.56949 18.7114 6.54752 17.7902L9.31965 13.3383C9.46373 13.3698 9.61076 13.3857 9.75823 13.3858C10.0579 13.386 10.354 13.3204 10.6255 13.1937L11.8989 14.5622C11.7063 14.8818 11.6047 15.248 11.6051 15.6212C11.6051 16.7575 12.5295 17.682 13.6658 17.682C14.8021 17.682 15.7266 16.7575 15.7266 15.6212C15.7269 15.2302 15.6152 14.8472 15.4047 14.5176L17.3153 11.5404C17.8138 13.8709 17.0192 16.3944 15.0464 17.9977C13.8687 18.955 12.4287 19.4642 10.9315 19.4641ZM22.2208 25.613L18.2923 21.801L19.6844 20.3664L23.6128 24.1784L22.2208 25.613Z" fill="white"/>
</g>
</g>
</g>
<defs>
<filter id="filter0_d_3_401" x="0.299512" y="2.29976" width="27.4" height="27.4" filterUnits="userSpaceOnUse" color-interpolation-filters="sRGB">
<feFlood flood-opacity="0" result="BackgroundImageFix"/>
<feColorMatrix in="SourceAlpha" type="matrix" values="0 0 0 0 0 0 0 0 0 0 0 0 0 0 0 0 0 0 127 0" result="hardAlpha"/>
<feOffset/>
<feGaussianBlur stdDeviation="1.35"/>
<feComposite in2="hardAlpha" operator="out"/>
<feColorMatrix type="matrix" values="0 0 0 0 0.384314 0 0 0 0 0.235294 0 0 0 0 1 0 0 0 1 0"/>
<feBlend mode="normal" in2="BackgroundImageFix" result="effect1_dropShadow_3_401"/>
<feBlend mode="normal" in="SourceGraphic" in2="effect1_dropShadow_3_401" result="shape"/>
</filter>
<clipPath id="clip0_3_401">
<rect width="28" height="28" fill="white" transform="translate(0.5)"/>
</clipPath>
<clipPath id="clip1_3_401">
<rect width="26" height="25" fill="white" transform="translate(-1 2)"/>
</clipPath>
</defs>
</svg>
