<svg width="18" height="18" viewBox="0 0 18 18" fill="none" xmlns="http://www.w3.org/2000/svg">
<path fill-rule="evenodd" clip-rule="evenodd" d="M15.2407 2.8699L14.2857 1.82791C13.9165 1.4251 13.2924 1.39317 12.884 1.75621L11.3213 3.14559L13.6194 5.68265L15.1714 4.28976C15.5854 3.91815 15.6166 3.28005 15.2407 2.8699ZM2.5 10.9881L10.2002 4.14227L12.5031 6.68456L4.90674 13.5024H2.5V10.9881ZM16.3465 1.85642L15.3915 0.814429C14.4686 -0.192595 12.9083 -0.272411 11.8874 0.635181L1.33557 10.0162C1.12212 10.206 1 10.478 1 10.7636V14.0024C1 14.5546 1.44772 15.0024 2 15.0024H5.09822C5.34478 15.0024 5.58266 14.9113 5.76616 14.7466L16.1733 5.40609C17.2084 4.47706 17.2863 2.88181 16.3465 1.85642ZM17 16.4998H1V17.9998H17V16.4998Z" fill="#101828"/>
</svg>
