<svg width="15" height="16" viewBox="0 0 15 16" fill="none" xmlns="http://www.w3.org/2000/svg">
<rect y="0.5" width="15" height="15" rx="7.5" fill="#1B21AA"/>
<path d="M8.3457 7.50723L8.51834 10.0878C8.55209 10.607 8.72928 11.4462 8.33272 11.8681C8.03092 12.1926 7.31632 12.2485 7.09955 11.7987C6.91521 11.2701 6.87445 10.7021 6.98142 10.1527L7.21248 7.49619C7.22241 7.24617 7.27715 6.99995 7.37409 6.76927C7.41225 6.69462 7.4701 6.63184 7.54138 6.58771C7.61266 6.54359 7.69466 6.5198 7.77849 6.51893C7.86231 6.51806 7.94478 6.54014 8.01696 6.58278C8.08915 6.62542 8.14829 6.68699 8.18798 6.76083C8.27933 6.99983 8.33255 7.2517 8.3457 7.50723ZM7.74794 3.96153C7.95261 3.96268 8.14915 4.04177 8.29758 4.1827C8.446 4.32363 8.53515 4.51581 8.5469 4.72015C8.55864 4.92449 8.49209 5.12562 8.36078 5.28263C8.22948 5.43964 8.04329 5.54072 7.8401 5.56531C7.73094 5.57851 7.62023 5.56921 7.5148 5.53798C7.40937 5.50674 7.31146 5.45424 7.22711 5.3837C7.14276 5.31315 7.07376 5.22608 7.02437 5.12784C6.97498 5.0296 6.94624 4.92228 6.93993 4.8125C6.93362 4.70272 6.94988 4.59282 6.98769 4.48956C7.0255 4.38631 7.08407 4.2919 7.15979 4.21216C7.2355 4.13243 7.32675 4.06905 7.42791 4.02594C7.52906 3.98283 7.63798 3.96091 7.74794 3.96153Z" fill="white"/>
</svg>
