<svg width="34" height="29" viewBox="0 0 34 29" fill="none" xmlns="http://www.w3.org/2000/svg">
<path d="M31.3648 12.3449C31.0917 10.797 30.5889 9.10713 29.9611 7.53688C29.3422 6.03431 28.6329 4.64687 27.8641 3.61148C24.8982 -0.234513 22.3544 0.752821 19.314 1.97733C18.3423 2.34562 17.3058 2.75681 16.2125 3.00329L15.8667 3.04859C14.7469 3.092 13.6394 2.96166 12.6056 2.85609C9.35683 2.48984 6.64009 2.15717 4.76927 6.67117C4.29314 7.86963 3.93051 9.39749 3.75408 11.0042C3.55193 12.6832 3.50141 14.4456 3.6362 16.0116C3.79315 17.7468 4.13009 18.9765 4.62574 19.8066C5.11253 20.5691 5.73231 21.0043 6.48509 21.1123C7.16427 21.1954 7.91616 21.0281 8.66716 20.5855C9.94483 19.8673 11.3502 18.5126 12.6899 16.9257C13.6289 15.7698 15.568 14.9994 17.5736 14.7367C19.5793 14.474 21.6514 14.719 22.8564 15.5939C24.5597 16.7823 26.2665 17.7292 27.686 18.0941C28.5213 18.2945 29.2953 18.2964 29.9302 18.0411C30.5952 17.7475 31.121 17.1966 31.3861 16.2668C31.6556 15.3708 31.6645 14.0959 31.3648 12.3449Z" fill="#172994"/>
<g filter="url(#filter0_d_3_389)">
<path d="M30.985 18.4484C30.9152 16.8782 30.6362 15.1373 30.2177 13.4988C29.7992 11.9286 29.2761 10.4608 28.6483 9.3343C26.2071 5.13565 23.5565 5.78422 20.3829 6.60347C19.3715 6.84242 18.2904 7.1155 17.1744 7.21791H16.8256C15.7096 7.1155 14.6285 6.84242 13.6171 6.60347C10.4435 5.81836 7.79295 5.13565 5.35169 9.36843C4.72394 10.4949 4.16593 11.9627 3.7823 13.5329C3.3638 15.1714 3.0848 16.9123 3.01505 18.4826C2.9453 20.2235 3.11968 21.4865 3.5033 22.374C3.88693 23.1932 4.44493 23.7053 5.17731 23.9101C5.83994 24.0807 6.6072 24.0125 7.40933 23.6711C8.76946 23.125 10.3388 21.9644 11.8734 20.5648C12.9545 19.5407 14.9772 19.0287 17 19.0287C19.0228 19.0287 21.0455 19.5407 22.1267 20.5648C23.6612 21.9644 25.2306 23.125 26.5907 23.6711C27.3928 23.9783 28.1601 24.0807 28.8227 23.9101C29.5202 23.7053 30.1131 23.2274 30.4967 22.3398C30.8803 21.4865 31.0547 20.2235 30.985 18.4484ZM29.311 21.8619C29.1017 22.3398 28.8227 22.6129 28.474 22.7153C28.0903 22.8177 27.6021 22.7495 27.0441 22.5447C25.8234 22.0668 24.3936 21.0086 22.9985 19.7114C21.6733 18.4143 19.3366 17.7657 17 17.7657C14.6634 17.7657 12.3267 18.4143 10.9666 19.6432C9.53671 20.9403 8.10683 22.0326 6.92107 22.4764C6.36307 22.6812 5.87482 22.7836 5.49119 22.6471C5.14244 22.5447 4.86344 22.2716 4.65418 21.7937C4.37518 21.1451 4.23568 20.0869 4.30543 18.5167C4.37518 17.0489 4.61931 15.3762 5.03781 13.806C5.42144 12.3382 5.90969 10.9728 6.50257 9.94873C8.42071 6.56934 10.6527 7.1155 13.3032 7.79821C14.3844 8.07129 15.5004 8.34437 16.721 8.44678H17.2441C18.4996 8.34437 19.6157 8.07129 20.6968 7.79821C23.3473 7.14964 25.5793 6.56934 27.4974 9.94873C28.0903 10.9728 28.5786 12.3041 28.9622 13.806C29.3458 15.3762 29.6248 17.0147 29.6946 18.5167C29.7643 20.0869 29.6248 21.1451 29.311 21.8619Z" fill="white"/>
</g>
<path d="M13.7917 11.7921C13.443 11.4848 13.0245 11.2459 12.5362 11.2118C12.5013 10.768 12.2921 10.3242 11.9782 10.017L11.9433 9.98289C11.5597 9.6074 11.0714 9.40259 10.5134 9.40259C9.95544 9.40259 9.43231 9.64153 9.08356 9.98289C8.76969 10.2901 8.52556 10.7339 8.49068 11.2118C8.00243 11.2459 7.58393 11.4507 7.23518 11.7579L7.2003 11.7921C6.81667 12.1675 6.60742 12.6454 6.60742 13.1916C6.60742 13.7378 6.85155 14.2498 7.2003 14.5912C7.54905 14.9325 7.96755 15.1373 8.49068 15.1715C8.52556 15.6493 8.73481 16.0931 9.08356 16.4003C9.46719 16.7758 9.95544 16.9806 10.5134 16.9806C11.0714 16.9806 11.5946 16.7417 11.9433 16.4003C12.2572 16.059 12.5013 15.6493 12.5362 15.1715C13.0245 15.1373 13.4778 14.9325 13.7917 14.5912C14.1753 14.2157 14.3846 13.7378 14.3846 13.1916C14.3846 12.6454 14.1405 12.1334 13.7917 11.7921ZM12.9198 13.7036C12.7803 13.8402 12.606 13.9084 12.3967 13.9084H11.9085C11.5597 13.9084 11.2458 14.1815 11.2458 14.557V15.0008C11.2458 15.2056 11.1761 15.3763 11.0366 15.5128C10.8971 15.6493 10.7227 15.7176 10.5134 15.7176C10.3042 15.7176 10.1298 15.6493 9.99032 15.5128C9.85082 15.3763 9.78107 15.2056 9.78107 15.0008V14.5229C9.78107 14.1815 9.50206 13.8743 9.11844 13.8743H8.63018C8.42093 13.8743 8.24656 13.806 8.10706 13.6695C8.00243 13.5671 7.8978 13.3964 7.8978 13.1916C7.8978 12.9868 7.96756 12.8161 8.10706 12.6796L8.14193 12.6454C8.28143 12.543 8.45581 12.4748 8.63018 12.4748H9.11844C9.46719 12.4748 9.78107 12.2017 9.78107 11.8262V11.3483C9.78107 11.1435 9.85082 10.9728 9.99032 10.8363C10.1298 10.6997 10.3042 10.6315 10.5134 10.6315C10.7227 10.6315 10.8971 10.6997 11.0366 10.8363L11.0714 10.8704C11.1761 11.0069 11.2458 11.1776 11.2458 11.3483V11.8262C11.2458 12.1675 11.5248 12.4748 11.9085 12.4748H12.3967C12.606 12.4748 12.7803 12.543 12.9198 12.6796C13.0593 12.8161 13.1291 12.9868 13.1291 13.1916C13.1291 13.3964 13.0593 13.5671 12.9198 13.7036Z" fill="white"/>
<path d="M23.0683 11.9627C23.7424 11.9627 24.2889 11.4278 24.2889 10.768C24.2889 10.1081 23.7424 9.57324 23.0683 9.57324C22.3942 9.57324 21.8477 10.1081 21.8477 10.768C21.8477 11.4278 22.3942 11.9627 23.0683 11.9627Z" fill="white"/>
<path d="M23.0683 16.8099C23.7424 16.8099 24.2889 16.275 24.2889 15.6151C24.2889 14.9553 23.7424 14.4204 23.0683 14.4204C22.3942 14.4204 21.8477 14.9553 21.8477 15.6151C21.8477 16.275 22.3942 16.8099 23.0683 16.8099Z" fill="white"/>
<path d="M20.5922 14.3863C21.2664 14.3863 21.8128 13.8514 21.8128 13.1916C21.8128 12.5317 21.2664 11.9968 20.5922 11.9968C19.9181 11.9968 19.3716 12.5317 19.3716 13.1916C19.3716 13.8514 19.9181 14.3863 20.5922 14.3863Z" fill="white"/>
<path d="M25.5444 14.3863C26.2185 14.3863 26.765 13.8514 26.765 13.1916C26.765 12.5317 26.2185 11.9968 25.5444 11.9968C24.8702 11.9968 24.3237 12.5317 24.3237 13.1916C24.3237 13.8514 24.8702 14.3863 25.5444 14.3863Z" fill="white"/>
<defs>
<filter id="filter0_d_3_389" x="0.5" y="3.5" width="33" height="23" filterUnits="userSpaceOnUse" color-interpolation-filters="sRGB">
<feFlood flood-opacity="0" result="BackgroundImageFix"/>
<feColorMatrix in="SourceAlpha" type="matrix" values="0 0 0 0 0 0 0 0 0 0 0 0 0 0 0 0 0 0 127 0" result="hardAlpha"/>
<feOffset/>
<feGaussianBlur stdDeviation="1.25"/>
<feComposite in2="hardAlpha" operator="out"/>
<feColorMatrix type="matrix" values="0 0 0 0 0.38561 0 0 0 0 0.236667 0 0 0 0 1 0 0 0 1 0"/>
<feBlend mode="normal" in2="BackgroundImageFix" result="effect1_dropShadow_3_389"/>
<feBlend mode="normal" in="SourceGraphic" in2="effect1_dropShadow_3_389" result="shape"/>
</filter>
</defs>
</svg>
