<svg width="34" height="30" viewBox="0 0 34 30" fill="none" xmlns="http://www.w3.org/2000/svg">
<g clip-path="url(#clip0_3_419)">
<path d="M19.0943 10.2923L19.8843 4.36759C19.9505 3.87079 20.3761 3.49255 20.8732 3.55644C23.1393 3.84767 25.1254 5.20353 26.292 6.27571C26.7027 6.6531 26.6495 7.29185 26.221 7.64889L21.5024 11.5811C21.1972 11.8354 20.7704 11.8849 20.415 11.7073L19.6383 11.3189C19.2564 11.128 19.0379 10.7156 19.0943 10.2923Z" fill="#172994"/>
<path d="M11.3936 16.7975L6.6456 20.4283C6.24747 20.7328 5.67911 20.6993 5.37277 20.3026C3.9763 18.4943 3.53068 16.1312 3.46387 14.5481C3.44035 13.9909 3.92965 13.5768 4.48508 13.6273L10.6021 14.1834C10.9978 14.2194 11.3346 14.4862 11.4602 14.8631L11.7348 15.6869C11.8699 16.092 11.7328 16.5381 11.3936 16.7975Z" fill="#172994"/>
<path d="M18.7977 21.2739L22.4285 26.0219C22.733 26.42 22.6995 26.9884 22.3029 27.2947C20.4945 28.6912 18.1314 29.1368 16.5483 29.2036C15.9911 29.2271 15.5771 28.7378 15.6276 28.1824L16.1837 22.0654C16.2196 21.6697 16.4864 21.3329 16.8633 21.2072L17.6871 20.9326C18.0922 20.7976 18.5383 20.9347 18.7977 21.2739Z" fill="#172994"/>
<path d="M17.4626 15.9756C17.6479 15.6547 17.538 15.2443 17.217 15.059C16.8961 14.8737 16.4857 14.9837 16.3004 15.3046C16.1151 15.6256 16.225 16.036 16.546 16.2213C16.8669 16.4066 17.2773 16.2966 17.4626 15.9756Z" fill="white"/>
<g filter="url(#filter0_d_3_419)">
<path d="M8.4264 8.56933L7.41482 7.24543C7.34781 7.15758 7.26013 7.08764 7.15959 7.04184C7.05904 6.99604 6.94873 6.97578 6.83847 6.98288C6.72821 6.98999 6.62141 7.02422 6.52757 7.08254C6.43373 7.14086 6.35575 7.22146 6.30057 7.31718L4.38333 10.6379C4.32803 10.7336 4.29721 10.8414 4.29363 10.9518C4.29004 11.0623 4.31379 11.1719 4.36278 11.2709C4.41176 11.37 4.48445 11.4554 4.57439 11.5195C4.66433 11.5837 4.76873 11.6247 4.87832 11.6388L6.53064 11.8529C5.8096 13.8242 5.6664 15.9604 6.1179 18.0103C6.56939 20.0603 7.5968 21.9386 9.07932 23.4246C10.5618 24.9106 12.4378 25.9424 14.4867 26.3987C16.5355 26.855 18.6721 26.7168 20.6451 26.0004C22.6181 25.2839 24.3455 24.0191 25.6242 22.3545C26.903 20.6899 27.6798 18.6948 27.8635 16.6038C28.0472 14.5128 27.63 12.4128 26.661 10.5508C25.692 8.68882 24.2115 7.14219 22.3936 6.0928C20.15 4.7822 17.5135 4.31172 14.9551 4.76536C12.3966 5.21901 10.0827 6.56724 8.4264 8.56933ZM21.7226 7.25506C22.6283 7.77781 23.4428 8.44459 24.1342 9.22922L19.0801 13.1073C18.7572 12.8246 18.3819 12.6079 17.9756 12.4696L18.8087 6.14304C19.8332 6.35553 20.817 6.73098 21.7226 7.25506ZM17.4785 5.96304L16.644 12.2936C16.2168 12.3245 15.7995 12.4364 15.4141 12.6232L11.5279 7.55862C13.2822 6.38732 15.3736 5.82657 17.4785 5.96304ZM18.6249 16.6465C18.4259 16.9913 18.129 17.2693 17.7719 17.4454C17.4148 17.6215 17.0135 17.6878 16.6188 17.6358C16.224 17.5838 15.8536 17.416 15.5542 17.1535C15.2549 16.8909 15.0401 16.5456 14.937 16.161C14.834 15.7764 14.8473 15.3699 14.9753 14.9929C15.1033 14.6158 15.3402 14.2852 15.656 14.0428C15.9719 13.8005 16.3526 13.6572 16.7499 13.6312C17.1472 13.6051 17.5433 13.6975 17.8881 13.8965C18.35 14.1639 18.687 14.6036 18.8251 15.1192C18.9633 15.6347 18.8913 16.184 18.6249 16.6465ZM6.95955 8.85991L8.39703 10.7414L6.04887 10.4373L6.95955 8.85991ZM9.82183 12.2791C9.95321 12.2962 10.0867 12.274 10.2055 12.2154C10.3243 12.1567 10.4231 12.0641 10.4893 11.9494C10.5556 11.8346 10.5863 11.7028 10.5777 11.5706C10.5692 11.4384 10.5216 11.3117 10.4411 11.2065L9.26387 9.66563C9.62533 9.20245 10.0276 8.77263 10.4658 8.38131L14.3487 13.4417C14.0661 13.7644 13.8496 14.1395 13.7114 14.5455L7.38754 13.7131C7.5073 13.1379 7.67841 12.5746 7.8988 12.03L9.82183 12.2791ZM7.20735 15.0436L13.5352 15.8775C13.5661 16.3046 13.678 16.722 13.8648 17.1074L8.79959 20.9954C7.6289 19.2403 7.06908 17.1484 7.20669 15.0432L7.20735 15.0436ZM12.0405 24.0248C11.1339 23.5026 10.3168 22.8384 9.62058 22.0574L14.683 18.1726C15.0059 18.4553 15.3812 18.672 15.7875 18.8103L14.956 25.1263C13.9308 24.9199 12.9461 24.5478 12.0405 24.0248ZM16.2866 25.3003L17.1191 18.9863C17.5462 18.9553 17.9636 18.8435 18.349 18.6567L22.2268 23.7089C20.4704 24.8666 18.3865 25.4249 16.2866 25.3003ZM23.2928 22.8925L19.4144 17.8382C19.697 17.5154 19.9135 17.1404 20.0517 16.7344L26.368 17.566C25.9518 19.6295 24.8717 21.5002 23.2928 22.8925ZM26.5421 16.2346L20.2279 15.4024C20.1969 14.9752 20.0851 14.5579 19.8983 14.1725L24.9515 10.2953C26.1087 12.0515 26.6667 14.135 26.5421 16.2346Z" fill="white"/>
</g>
</g>
<defs>
<filter id="filter0_d_3_419" x="1.59346" y="1.89717" width="29.0123" height="27.4652" filterUnits="userSpaceOnUse" color-interpolation-filters="sRGB">
<feFlood flood-opacity="0" result="BackgroundImageFix"/>
<feColorMatrix in="SourceAlpha" type="matrix" values="0 0 0 0 0 0 0 0 0 0 0 0 0 0 0 0 0 0 127 0" result="hardAlpha"/>
<feOffset/>
<feGaussianBlur stdDeviation="1.35"/>
<feComposite in2="hardAlpha" operator="out"/>
<feColorMatrix type="matrix" values="0 0 0 0 0.384314 0 0 0 0 0.235294 0 0 0 0 1 0 0 0 1 0"/>
<feBlend mode="normal" in2="BackgroundImageFix" result="effect1_dropShadow_3_419"/>
<feBlend mode="normal" in="SourceGraphic" in2="effect1_dropShadow_3_419" result="shape"/>
</filter>
<clipPath id="clip0_3_419">
<rect width="27.1287" height="24.5406" fill="white" transform="translate(-0.876465 19.5562) rotate(-60)"/>
</clipPath>
</defs>
</svg>
