<?xml version="1.0" encoding="utf-8"?><svg xmlns="http://www.w3.org/2000/svg" xmlns:xlink="http://www.w3.org/1999/xlink"><symbol fill="none" viewBox="0 0 18 18" id="attention" xmlns="http://www.w3.org/2000/svg"><path d="M16.742 13.192 10.45 3.105A1.703 1.703 0 0 0 7.554 3.1L1.251 13.204a1.703 1.703 0 0 0 1.453 2.546h12.592a1.703 1.703 0 0 0 1.446-2.558Z" fill="#FFD54F"/><path d="m8.486 10.476-.15-2.237c-.028-.45-.182-1.177.162-1.542.261-.282.88-.33 1.068.06.16.458.195.95.103 1.426l-.2 2.303c-.01.216-.057.43-.14.63a.398.398 0 0 1-.706.007 2.118 2.118 0 0 1-.137-.647Zm.518 3.073a.697.697 0 1 1 .008-1.395.697.697 0 0 1-.008 1.395Z" fill="#1A0936"/></symbol><symbol fill="none" viewBox="0 0 14 14" id="ava-empty" xmlns="http://www.w3.org/2000/svg"><path fill-rule="evenodd" clip-rule="evenodd" d="M7 .5c3.584 0 6.5 2.916 6.5 6.5s-2.916 6.5-6.5 6.5A6.507 6.507 0 0 1 .5 7C.5 3.416 3.416.5 7 .5Zm4.056 9.75a5.194 5.194 0 0 1-8.112 0 5.194 5.194 0 0 1 8.112 0ZM7 7a1.95 1.95 0 1 0 0-3.9A1.95 1.95 0 0 0 7 7Z" fill="#fff"/></symbol><symbol fill="none" viewBox="0 0 16 16" id="chevron-down" xmlns="http://www.w3.org/2000/svg"><path fill-rule="evenodd" clip-rule="evenodd" d="m7.469 10.534-4-4.004 1.062-1.06 3.468 3.473 3.47-3.473 1.061 1.06-4 4.004a.75.75 0 0 1-1.061 0Z" fill="#FFC53E"/></symbol><symbol fill="none" viewBox="0 0 16 16" id="copy" xmlns="http://www.w3.org/2000/svg"><path fill-rule="evenodd" clip-rule="evenodd" d="M5 4H3a1 1 0 0 0-1 1v9a1 1 0 0 0 1 1h7a1 1 0 0 0 1-1v-2h2a1 1 0 0 0 1-1V4a3 3 0 0 0-3-3H6a1 1 0 0 0-1 1v2Zm1.5 0H8a3 3 0 0 1 3 3v3.5h1.5V4A1.5 1.5 0 0 0 11 2.5H6.5V4Zm-3 9.5v-8H8A1.5 1.5 0 0 1 9.5 7v6.5h-6Z" fill="#9787CA"/></symbol><symbol fill="none" viewBox="0 0 32 29" id="deposit-menu" xmlns="http://www.w3.org/2000/svg"><g filter="url(#ea)"><path d="M22.309 15.82a.876.876 0 1 0-.972 1.457.876.876 0 0 0 .972-1.457Zm4.032-2.928h-.339v-2.468a2.628 2.628 0 0 0-2.39-2.614l-.624-2.003A1.749 1.749 0 0 0 20.8 4.66l-2.447.763-1.84-2.116a1.748 1.748 0 0 0-2.464-.18L8.646 7.799H6.752a2.628 2.628 0 0 0-2.625 2.626v12.25a2.628 2.628 0 0 0 2.625 2.625h16.625a2.628 2.628 0 0 0 2.625-2.625v-2.469h.34a1.533 1.533 0 0 0 1.53-1.531v-4.25a1.532 1.532 0 0 0-1.53-1.532Zm-5.15-6.98a.434.434 0 0 1 .544.286l.499 1.6H15.14l6.05-1.886ZM14.907 4.12a.436.436 0 0 1 .614.046l1.463 1.683L11.01 7.71a.647.647 0 0 0-.174.087h-.185l4.256-3.678Zm9.782 18.553a1.314 1.314 0 0 1-1.313 1.313H6.752a1.313 1.313 0 0 1-1.312-1.313v-12.25a1.314 1.314 0 0 1 1.312-1.312h16.625a1.314 1.314 0 0 1 1.313 1.313v2.468h-4.782a1.533 1.533 0 0 0-1.531 1.531v4.25a1.533 1.533 0 0 0 1.531 1.532h4.782v2.469Zm1.87-4a.219.219 0 0 1-.219.22h-.982l-.013-.002-.012.002h-5.425a.219.219 0 0 1-.22-.22v-4.25a.219.219 0 0 1 .22-.219h5.425l.012.002.013-.002h.982a.219.219 0 0 1 .219.22v4.25Z" fill="url(#eb)"/></g><defs><linearGradient id="eb" x1="4" y1="-12" x2="21.5" y2="39.5" gradientUnits="userSpaceOnUse"><stop stop-color="#fff"/><stop offset="1" stop-color="#3146FF"/></linearGradient><filter id="ea" x=".127" y="-1.298" width="31.745" height="30.596" filterUnits="userSpaceOnUse" color-interpolation-filters="sRGB"><feFlood flood-opacity="0" result="BackgroundImageFix"/><feColorMatrix in="SourceAlpha" values="0 0 0 0 0 0 0 0 0 0 0 0 0 0 0 0 0 0 127 0" result="hardAlpha"/><feOffset/><feGaussianBlur stdDeviation="2"/><feComposite in2="hardAlpha" operator="out"/><feColorMatrix values="0 0 0 0 0.3625 0 0 0 0 0.65575 0 0 0 0 1 0 0 0 0.67 0"/><feBlend in2="BackgroundImageFix" result="effect1_dropShadow_3_439"/><feBlend in="SourceGraphic" in2="effect1_dropShadow_3_439" result="shape"/></filter></defs></symbol><symbol fill="none" viewBox="0 0 29 28" id="earn-menu" xmlns="http://www.w3.org/2000/svg"><g clip-path="url(#fa)"><g clip-path="url(#fb)"><circle cx="17" cy="9" r="7" fill="#172994"/><g filter="url(#fc)"><path d="m24.592 23.213-3.972-3.854a1.339 1.339 0 0 0-1.304-.328l-1.793-1.74a7.955 7.955 0 0 0 .767-7.269l.615-.958A2.063 2.063 0 0 0 21.45 7.06c0-1.136-.924-2.06-2.06-2.06-1.137 0-2.062.924-2.062 2.06 0 .47.16.904.425 1.251l-.19.297a7.978 7.978 0 0 0-.498-.684 7.867 7.867 0 0 0-5.332-2.882 7.867 7.867 0 0 0-5.808 1.731 7.867 7.867 0 0 0-2.883 5.332 7.86 7.86 0 0 0 1.332 5.27A2.064 2.064 0 0 0 3 19.32c0 1.137.925 2.061 2.06 2.061.959 0 1.766-.657 1.996-1.544a7.9 7.9 0 0 0 3.878 1.003 7.842 7.842 0 0 0 4.307-1.283l1.777 1.706a1.345 1.345 0 0 0 .295 1.505l3.972 3.854c.26.253.599.379.936.379.351 0 .702-.137.965-.408l1.434-1.478a1.347 1.347 0 0 0-.028-1.901ZM19.389 6.375a.687.687 0 1 1-.001 1.373.687.687 0 0 1 .001-1.373Zm-1.16 13.517-.315.324-1.58-1.518c.113-.106.223-.215.328-.326l1.567 1.52ZM4.41 12.247a6.5 6.5 0 0 1 2.382-4.406 6.494 6.494 0 0 1 4.8-1.43 6.501 6.501 0 0 1 4.405 2.381c.282.346.527.72.732 1.116l-2.412 3.759a2.05 2.05 0 0 0-1.356.018l-1.353-1.453a2.063 2.063 0 0 0-1.85-2.967c-1.136 0-2.06.924-2.06 2.06 0 .487.17.935.453 1.288l-2.558 4.108a6.495 6.495 0 0 1-1.183-4.474Zm9.256 2.688a.687.687 0 1 1-.002 1.374.687.687 0 0 1 .002-1.374Zm-4.593-3.61a.686.686 0 1 1 1.373.002.686.686 0 0 1-1.373-.002Zm-4.012 8.68a.687.687 0 1 1 .001-1.373.687.687 0 0 1-.001 1.373Zm5.87-.54c-.227 0-.455-.013-.684-.036a6.494 6.494 0 0 1-3.7-1.639l2.773-4.452a2.06 2.06 0 0 0 1.306-.144l1.273 1.368a2.063 2.063 0 0 0 1.767 3.12c1.136 0 2.06-.924 2.06-2.06 0-.392-.11-.775-.321-1.104l1.91-2.978a6.55 6.55 0 0 1-2.269 6.458 6.493 6.493 0 0 1-4.114 1.466Zm11.29 6.148-3.929-3.812 1.392-1.435 3.929 3.812-1.392 1.435Z" fill="#fff"/></g></g></g><defs><clipPath id="fa"><path fill="#fff" transform="translate(.5)" d="M0 0h28v28H0z"/></clipPath><clipPath id="fb"><path fill="#fff" transform="translate(-1 2)" d="M0 0h26v25H0z"/></clipPath><filter id="fc" x=".3" y="2.3" width="27.4" height="27.4" filterUnits="userSpaceOnUse" color-interpolation-filters="sRGB"><feFlood flood-opacity="0" result="BackgroundImageFix"/><feColorMatrix in="SourceAlpha" values="0 0 0 0 0 0 0 0 0 0 0 0 0 0 0 0 0 0 127 0" result="hardAlpha"/><feOffset/><feGaussianBlur stdDeviation="1.35"/><feComposite in2="hardAlpha" operator="out"/><feColorMatrix values="0 0 0 0 0.384314 0 0 0 0 0.235294 0 0 0 0 1 0 0 0 1 0"/><feBlend in2="BackgroundImageFix" result="effect1_dropShadow_3_401"/><feBlend in="SourceGraphic" in2="effect1_dropShadow_3_401" result="shape"/></filter></defs></symbol><symbol fill="none" viewBox="0 0 18 18" id="edit" xmlns="http://www.w3.org/2000/svg"><path fill-rule="evenodd" clip-rule="evenodd" d="m15.24 2.87-.954-1.042a1 1 0 0 0-1.402-.072l-1.563 1.39 2.298 2.537 1.552-1.393a1 1 0 0 0 .07-1.42ZM2.5 10.988l7.7-6.846 2.303 2.543-7.596 6.817H2.5v-2.514Zm13.846-9.132L15.392.814a2.5 2.5 0 0 0-3.505-.179L1.336 10.016a1 1 0 0 0-.336.748v3.238a1 1 0 0 0 1 1h3.098a1 1 0 0 0 .668-.255l10.407-9.34a2.5 2.5 0 0 0 .174-3.55ZM17 16.5H1V18h16v-1.5Z" fill="#101828"/></symbol><symbol fill="none" viewBox="0 0 15 16" id="info" xmlns="http://www.w3.org/2000/svg"><rect y=".5" width="15" height="15" rx="7.5" fill="#1B21AA"/><path d="m8.346 7.507.172 2.58c.034.52.211 1.36-.185 1.781-.302.325-1.017.38-1.233-.07a3.163 3.163 0 0 1-.119-1.645l.231-2.657c.01-.25.065-.496.162-.727a.46.46 0 0 1 .814-.008c.091.239.145.49.158.746Zm-.598-3.545a.805.805 0 1 1-.01 1.61.805.805 0 0 1 .01-1.61Z" fill="#fff"/></symbol><symbol fill="none" viewBox="0 0 34 29" id="play-menu" xmlns="http://www.w3.org/2000/svg"><path d="M31.365 12.345c-.273-1.548-.776-3.238-1.404-4.808-.619-1.503-1.328-2.89-2.097-3.926-2.966-3.846-5.51-2.858-8.55-1.634-.972.369-2.008.78-3.102 1.026l-.345.046c-1.12.043-2.228-.087-3.261-.193-3.25-.366-5.966-.699-7.837 3.815-.476 1.199-.838 2.726-1.015 4.333-.202 1.68-.253 3.442-.118 5.008.157 1.735.494 2.965.99 3.795.487.762 1.106 1.197 1.86 1.305.678.083 1.43-.084 2.181-.526 1.278-.719 2.683-2.073 4.023-3.66.939-1.156 2.878-1.927 4.884-2.19 2.005-.262 4.077-.017 5.282.858 1.704 1.188 3.41 2.135 4.83 2.5.835.2 1.61.202 2.244-.053.665-.294 1.191-.844 1.456-1.774.27-.896.279-2.171-.021-3.922Z" fill="#172994"/><g filter="url(#ia)"><path d="M30.985 18.448c-.07-1.57-.349-3.31-.767-4.95-.419-1.57-.942-3.037-1.57-4.164-2.44-4.198-5.091-3.55-8.265-2.73-1.011.238-2.093.511-3.209.614h-.348c-1.116-.103-2.197-.376-3.209-.615-3.174-.785-5.824-1.467-8.265 2.765-.628 1.127-1.186 2.595-1.57 4.165-.418 1.638-.697 3.38-.767 4.95-.07 1.74.105 3.003.488 3.891.384.82.942 1.331 1.674 1.536.663.17 1.43.102 2.232-.239 1.36-.546 2.93-1.707 4.464-3.106 1.082-1.024 3.104-1.536 5.127-1.536 2.023 0 4.046.512 5.127 1.536 1.534 1.4 3.104 2.56 4.464 3.106.802.307 1.57.41 2.232.24.697-.206 1.29-.684 1.674-1.571.383-.854.558-2.116.488-3.892Zm-1.674 3.414c-.21.478-.488.75-.837.853-.384.103-.872.035-1.43-.17-1.22-.478-2.65-1.536-4.046-2.834-1.325-1.297-3.661-1.945-5.998-1.945s-4.673.648-6.033 1.877c-1.43 1.297-2.86 2.39-4.046 2.833-.558.205-1.046.308-1.43.171-.349-.102-.628-.375-.837-.853-.279-.649-.418-1.707-.349-3.277.07-1.468.314-3.14.733-4.711.383-1.468.872-2.833 1.465-3.857 1.918-3.38 4.15-2.833 6.8-2.15 1.081.272 2.197.545 3.418.648h.523c1.256-.103 2.372-.376 3.453-.649 2.65-.648 4.882-1.229 6.8 2.15.593 1.025 1.082 2.356 1.465 3.858.384 1.57.663 3.209.733 4.71.07 1.57-.07 2.63-.384 3.346Z" fill="#fff"/></g><path d="M13.792 11.792c-.349-.307-.768-.546-1.256-.58a1.924 1.924 0 0 0-.558-1.195l-.035-.034a1.997 1.997 0 0 0-1.43-.58c-.558 0-1.08.239-1.43.58-.313.307-.557.75-.592 1.229a2.099 2.099 0 0 0-1.256.546l-.035.034a1.913 1.913 0 0 0-.593 1.4c0 .546.245 1.058.593 1.4.35.34.768.545 1.29.58.036.477.245.921.594 1.228.383.376.871.58 1.43.58.557 0 1.08-.238 1.43-.58.313-.341.557-.75.592-1.228a1.877 1.877 0 0 0 1.256-.58c.383-.376.593-.854.593-1.4 0-.547-.245-1.059-.593-1.4Zm-.872 1.912a.717.717 0 0 1-.523.204h-.489a.655.655 0 0 0-.662.649v.444c0 .205-.07.375-.21.512a.718.718 0 0 1-.523.205.718.718 0 0 1-.523-.205.687.687 0 0 1-.209-.512v-.478a.655.655 0 0 0-.663-.649H8.63a.718.718 0 0 1-.523-.205.687.687 0 0 1 0-.99l.035-.034a.845.845 0 0 1 .488-.17h.488a.655.655 0 0 0 .663-.649v-.478c0-.205.07-.375.21-.512a.718.718 0 0 1 .522-.204c.21 0 .384.068.524.204l.034.034a.804.804 0 0 1 .175.478v.478c0 .341.279.649.662.649h.489c.209 0 .383.068.523.205.14.136.21.307.21.512 0 .204-.07.375-.21.512ZM23.068 11.963c.674 0 1.22-.535 1.22-1.195s-.546-1.195-1.22-1.195c-.674 0-1.22.535-1.22 1.195s.546 1.195 1.22 1.195ZM23.068 16.81c.674 0 1.22-.535 1.22-1.195s-.546-1.195-1.22-1.195c-.674 0-1.22.535-1.22 1.195s.546 1.195 1.22 1.195ZM20.592 14.386c.674 0 1.22-.535 1.22-1.194 0-.66-.546-1.195-1.22-1.195-.674 0-1.22.535-1.22 1.195s.546 1.194 1.22 1.194ZM25.544 14.386c.674 0 1.221-.535 1.221-1.194 0-.66-.547-1.195-1.22-1.195-.675 0-1.221.535-1.221 1.195s.546 1.194 1.22 1.194Z" fill="#fff"/><defs><filter id="ia" x=".5" y="3.5" width="33" height="23" filterUnits="userSpaceOnUse" color-interpolation-filters="sRGB"><feFlood flood-opacity="0" result="BackgroundImageFix"/><feColorMatrix in="SourceAlpha" values="0 0 0 0 0 0 0 0 0 0 0 0 0 0 0 0 0 0 127 0" result="hardAlpha"/><feOffset/><feGaussianBlur stdDeviation="1.25"/><feComposite in2="hardAlpha" operator="out"/><feColorMatrix values="0 0 0 0 0.38561 0 0 0 0 0.236667 0 0 0 0 1 0 0 0 1 0"/><feBlend in2="BackgroundImageFix" result="effect1_dropShadow_3_389"/><feBlend in="SourceGraphic" in2="effect1_dropShadow_3_389" result="shape"/></filter></defs></symbol><symbol fill="none" viewBox="0 0 52 60" id="roulette-arrow" xmlns="http://www.w3.org/2000/svg"><path d="M16.65 6.571c3.359-8.478 15.341-8.478 18.7 0l15.342 38.71c2.622 6.615-2.243 13.793-9.35 13.793H10.659c-7.108 0-11.973-7.178-9.35-13.792l15.34-38.71Z" fill="#FFCB4D"/></symbol><symbol fill="none" viewBox="0 0 34 30" id="spin-menu" xmlns="http://www.w3.org/2000/svg"><g clip-path="url(#ka)"><path d="m19.094 10.292.79-5.924c.067-.497.492-.875.99-.812 2.265.292 4.251 1.648 5.418 2.72.41.377.357 1.016-.071 1.373l-4.719 3.932a1 1 0 0 1-1.087.126l-.777-.388a1 1 0 0 1-.544-1.027ZM11.394 16.797l-4.748 3.631c-.399.305-.967.271-1.273-.125-1.397-1.809-1.842-4.172-1.91-5.755-.023-.557.467-.971 1.022-.92l6.117.555a1 1 0 0 1 .858.68l.275.824a1 1 0 0 1-.341 1.11ZM18.798 21.274l3.63 4.748c.305.398.271.966-.125 1.273-1.809 1.396-4.172 1.842-5.755 1.909-.557.023-.97-.466-.92-1.022l.556-6.117a1 1 0 0 1 .68-.858l.823-.274a1 1 0 0 1 1.11.34Z" fill="#172994"/><path d="M17.463 15.976a.67.67 0 1 0-1.162-.671.67.67 0 0 0 1.162.67Z" fill="#fff"/><g filter="url(#kb)"><path d="M8.426 8.57 7.415 7.244a.67.67 0 0 0-1.114.072l-1.918 3.32a.67.67 0 0 0 .495 1.002l1.653.214a11.023 11.023 0 1 0 15.863-5.76A10.955 10.955 0 0 0 8.426 8.569Zm13.297-1.315a9.632 9.632 0 0 1 2.411 1.974l-5.054 3.878a3.283 3.283 0 0 0-1.104-.637l.833-6.327a9.785 9.785 0 0 1 2.914 1.112Zm-4.244-1.292-.835 6.33c-.427.032-.844.143-1.23.33L11.528 7.56a9.598 9.598 0 0 1 5.95-1.596Zm1.146 10.684a2.013 2.013 0 1 1-3.486-2.013 2.013 2.013 0 0 1 3.486 2.012ZM6.96 8.86l1.437 1.881-2.348-.304.91-1.577Zm2.862 3.42a.671.671 0 0 0 .62-1.073L9.263 9.665a9.83 9.83 0 0 1 1.202-1.285l3.883 5.06a3.28 3.28 0 0 0-.638 1.104l-6.323-.832c.12-.575.29-1.138.51-1.683l1.924.25Zm-2.615 2.764 6.328.833c.031.428.143.845.33 1.23L8.8 20.995a9.598 9.598 0 0 1-1.593-5.952Zm4.833 8.98a9.784 9.784 0 0 1-2.42-1.967l5.063-3.884c.323.282.698.499 1.104.637l-.831 6.316a9.63 9.63 0 0 1-2.915-1.101Zm4.247 1.276.832-6.314a3.381 3.381 0 0 0 1.23-.33l3.878 5.053a9.745 9.745 0 0 1-5.94 1.591Zm7.006-2.408-3.879-5.054c.283-.323.5-.698.638-1.104l6.316.832a9.644 9.644 0 0 1-3.075 5.326Zm3.25-6.657-6.315-.833a3.38 3.38 0 0 0-.33-1.23l5.053-3.877a9.745 9.745 0 0 1 1.591 5.94Z" fill="#fff"/></g></g><defs><clipPath id="ka"><path fill="#fff" transform="rotate(-60 16.498 10.537)" d="M0 0h27.129v24.541H0z"/></clipPath><filter id="kb" x="1.593" y="1.897" width="29.012" height="27.465" filterUnits="userSpaceOnUse" color-interpolation-filters="sRGB"><feFlood flood-opacity="0" result="BackgroundImageFix"/><feColorMatrix in="SourceAlpha" values="0 0 0 0 0 0 0 0 0 0 0 0 0 0 0 0 0 0 127 0" result="hardAlpha"/><feOffset/><feGaussianBlur stdDeviation="1.35"/><feComposite in2="hardAlpha" operator="out"/><feColorMatrix values="0 0 0 0 0.384314 0 0 0 0 0.235294 0 0 0 0 1 0 0 0 1 0"/><feBlend in2="BackgroundImageFix" result="effect1_dropShadow_3_419"/><feBlend in="SourceGraphic" in2="effect1_dropShadow_3_419" result="shape"/></filter></defs></symbol><symbol fill="none" viewBox="0 0 26 26" id="ticket" xmlns="http://www.w3.org/2000/svg"><path d="M21.198 8.423a.656.656 0 0 0-.102-.827l-.39-.39a1.97 1.97 0 0 0-2.786 0l-1.792 1.792.866.866a.331.331 0 0 1-.402.527c-.06-.028-.928-.928-.928-.928L7.79 17.337a1.971 1.971 0 0 0-.084 2.869l.385.385a.656.656 0 0 0 .857.072 1.399 1.399 0 0 1 1.952 1.953.657.657 0 0 0 .072.856l.383.383a1.97 1.97 0 0 0 2.786 0l7.958-7.957s-.903-.876-.929-.93a.328.328 0 0 1 .441-.44c.1.04.94.917.94.917l1.804-1.804a1.97 1.97 0 0 0 0-2.786l-.415-.415a.657.657 0 0 0-.813-.088 1.402 1.402 0 0 1-1.929-1.93Zm-.655 4.99a.328.328 0 0 1-.464.465l-.627-.627a.329.329 0 0 1 .465-.464l.626.627Zm-1.776-1.775a.328.328 0 1 1-.464.464l-.631-.631a.329.329 0 0 1 .464-.465l.631.632Zm-4.292-1.915c-.225-.003-.673 0-.896 0a.328.328 0 1 1-.002-.657h1.054V7.069a1.664 1.664 0 0 0-1.66-1.66l-.415-.002a.657.657 0 0 0-.62.504 1.073 1.073 0 0 1-2.083.002.657.657 0 0 0-.654-.515h-.413A1.671 1.671 0 0 0 7.123 7.06l-.002 1.999 1.059.014a.328.328 0 0 1-.003.657H7.123l.005 7.35 7.347-7.357Zm-3.266-.328a.33.33 0 0 1 .33-.33l.726.003a.328.328 0 0 1 0 .655h-.729a.328.328 0 0 1-.327-.328Zm-2.038 0a.328.328 0 0 1 .33-.33h.724a.33.33 0 0 1 0 .66l-.718.007a.328.328 0 0 1-.336-.337Z" fill="#fff"/></symbol><symbol fill="none" viewBox="0 0 31 27" id="tickets-menu" xmlns="http://www.w3.org/2000/svg"><path d="m22.2 9.041-6.861 7.116a1.964 1.964 0 0 0 .025 2.752l2.702 2.702a2 2 0 0 0 2.802.026l6.666-6.428a2 2 0 0 0 .026-2.854l-3.333-3.332a1.42 1.42 0 0 0-2.026.018Z" fill="#172994"/><path d="M16.38 17.84a.52.52 0 0 1-.266-.075l.051-.085-.051.085a.507.507 0 0 1-.19-.2l-.712-1.364-1.549.239a.521.521 0 0 1-.314-.047l.044-.09-.044.09a.495.495 0 0 1-.128-.809l1.107-1.081-.709-1.362.089-.047a.395.395 0 0 1 .076-.468l2.597 5.213Zm0 0a.504.504 0 0 0 .081-.007m-.08.006.08-.006m.95-5.855a.52.52 0 0 0-.596.095l-1.109 1.084 1.881-.665.099.017a.495.495 0 0 0-.274-.531Zm0 0-.044.09.045-.09Zm-.95 5.855-.016-.1.016.1Zm-.963-2.69h.002a.52.52 0 0 1 .456.273l.165.317.057-.349a.5.5 0 0 1 .145-.277.516.516 0 0 1 .282-.14l-1.107.175Zm0 0a.497.497 0 0 0-.08.007l-.353.054.252-.245a.5.5 0 0 0 .094-.586l-.162-.31.322.16m-.073.92 1.107-.176.35-.055-.316-.157a.495.495 0 0 1-.275-.527l.056-.347-.255.25a.517.517 0 0 1-.594.091m0 0 .045-.09m-.045.09.045-.09m0 0a.421.421 0 0 0 .479-.073l-.48.074Zm4.413-4.056-.073.072.073.071.584.57.07.069.07-.068.583-.57.074-.072-.073-.071-.584-.57-.07-.069-.07.068-.584.57Zm-1.168-1.14-.073.071.073.072.584.57.07.068.07-.068.584-.57.073-.072-.073-.071-.584-.57-.07-.069-.07.068-.584.57Zm-1.167-1.14-.073.071.073.072.584.57.07.068.07-.068.583-.57.074-.072L19 7.796l-.583-.57-.07-.069-.07.069-.584.57Zm4.67 4.561-.073.072.073.071.584.57.07.069.07-.069.584-.57.073-.071-.073-.072-.584-.57-.07-.068-.07.068-.584.57Zm-1.167-1.14-.073.071.073.072.584.57.07.068.07-.068.583-.57.073-.072-.073-.072-.584-.57-.07-.068-.07.068-.583.57Zm-3.761 2.806-.066-.033-.045.09.099.016.012-.073Zm1.243 1.64-.015-.098.015.099Zm-1.55.24.012-.072-.098-.015.015.098.072-.01Z" fill="#fff" stroke="#fff" stroke-width=".2"/><g filter="url(#ma)"><path d="M27.637 9.056 25.594 7.06l-.292.286a1.267 1.267 0 0 1-1.758.007 1.182 1.182 0 0 1-.319-1.175c.058-.206.17-.393.326-.543l.292-.285L21.8 3.354a1.26 1.26 0 0 0-1.752 0L18.59 4.78l-.876-.856a1.26 1.26 0 0 0-1.751 0l-12.6 12.308a1.19 1.19 0 0 0 0 1.711l2.043 1.996.292-.285a1.29 1.29 0 0 1 1.751 0 1.19 1.19 0 0 1 0 1.71l-.292.286L9.2 23.646a1.26 1.26 0 0 0 1.751 0l1.46-1.426.875.855a1.26 1.26 0 0 0 1.751 0l12.6-12.308a1.19 1.19 0 0 0 0-1.711Zm-17.27 14.019a.413.413 0 0 1-.292.118.419.419 0 0 1-.292-.118l-1.488-1.454c.543-.8.434-1.862-.26-2.54a2.1 2.1 0 0 0-2.6-.255l-1.489-1.453a.402.402 0 0 1-.12-.285.395.395 0 0 1 .12-.285l12.6-12.308a.417.417 0 0 1 .584 0l.876.855L7.449 15.663a1.19 1.19 0 0 0 0 1.71l2.042 1.996.292-.285a1.259 1.259 0 0 1 1.752 0 1.19 1.19 0 0 1 0 1.71l-.293.285.584.57-1.459 1.426Zm16.687-12.878-12.6 12.308a.42.42 0 0 1-.584 0L12.38 21.05c.541-.8.431-1.86-.263-2.538a2.104 2.104 0 0 0-2.597-.256l-1.489-1.454a.397.397 0 0 1 0-.57l12.6-12.308a.418.418 0 0 1 .584 0l1.489 1.451c-.542.8-.433 1.86.26 2.539a2.1 2.1 0 0 0 2.6.255l1.489 1.455a.397.397 0 0 1 0 .57v.002Z" fill="#fff"/><path d="M13.94 22.433a.32.32 0 0 0 .443 0l12.578-12.285v-.002l.023-.022a.297.297 0 0 0 0-.427l-1.433-1.4a2.2 2.2 0 0 1-2.655-.31l.07-.072-.07.071a2.08 2.08 0 0 1-.32-2.596l-1.43-1.394a.318.318 0 0 0-.222-.09L13.94 22.433Zm0 0-1.43-1.396a2.081 2.081 0 0 0-.322-2.595m1.752 3.991-1.752-3.991m0 0a2.205 2.205 0 0 0-2.653-.311l-1.433-1.4m4.086 1.71-4.086-1.71m0 0a.296.296 0 0 1 0-.427m0 .427v-.427m0 0 12.6-12.308m-12.6 12.308 12.6-12.308m0 0a.318.318 0 0 1 .222-.09l-.222.09Zm3.211 1.282L21.87 3.283a1.36 1.36 0 0 0-1.891 0l.07.071-.07-.071-1.39 1.357-.805-.787-.07.071.07-.071a1.36 1.36 0 0 0-1.891 0l.07.071-.07-.071-12.6 12.308a1.29 1.29 0 0 0 0 1.854l2.043 1.996.07.068.07-.069.29-.283a1.19 1.19 0 0 1 1.614 0 1.09 1.09 0 0 1 0 1.566l-.293.285-.073.072.073.071 2.044 1.997a1.36 1.36 0 0 0 1.89 0l1.39-1.358.806.787a1.36 1.36 0 0 0 1.89 0l12.6-12.309a1.29 1.29 0 0 0 0-1.854l-.17-.165-1.873-1.83-.07-.068-.07.068-.292.285a1.167 1.167 0 0 1-1.618.006 1.082 1.082 0 0 1 .007-1.574l.292-.285.073-.071-.073-.072ZM10.297 23.004a.313.313 0 0 1-.101.066l.037.093-.037-.093a.321.321 0 0 1-.241 0l-.038.093.038-.093a.314.314 0 0 1-.102-.066l-1.43-1.398c.518-.83.39-1.905-.319-2.597l-.07.072.07-.072a2.2 2.2 0 0 0-2.656-.309l-1.432-1.398a.303.303 0 0 1-.09-.214.295.295 0 0 1 .09-.213l12.6-12.309a.318.318 0 0 1 .444 0l.803.784L7.379 15.59a1.29 1.29 0 0 0 0 1.854l.07-.072-.07.072 2.043 1.995.07.069.07-.069.291-.285a1.159 1.159 0 0 1 1.612 0 1.09 1.09 0 0 1 0 1.568l-.293.285-.073.072.073.071.511.499-1.386 1.354Zm-.514.071-1.488-1.454 1.488 1.454Z" stroke="#fff" stroke-width=".2"/></g><defs><filter id="ma" x=".1" y=".1" width="30.8" height="26.8" filterUnits="userSpaceOnUse" color-interpolation-filters="sRGB"><feFlood flood-opacity="0" result="BackgroundImageFix"/><feColorMatrix in="SourceAlpha" values="0 0 0 0 0 0 0 0 0 0 0 0 0 0 0 0 0 0 127 0" result="hardAlpha"/><feOffset/><feGaussianBlur stdDeviation="1.35"/><feComposite in2="hardAlpha" operator="out"/><feColorMatrix values="0 0 0 0 0.384314 0 0 0 0 0.235294 0 0 0 0 1 0 0 0 1 0"/><feBlend in2="BackgroundImageFix" result="effect1_dropShadow_3_429"/><feBlend in="SourceGraphic" in2="effect1_dropShadow_3_429" result="shape"/></filter></defs></symbol><symbol fill="none" viewBox="0 0 42 40" id="todo-letter" xmlns="http://www.w3.org/2000/svg"><g filter="url(#na)" fill="#fff"><path d="M36.838 16.857a2.02 2.02 0 0 0-1.11-1.093l-.562-.228v-2.972a2.036 2.036 0 0 0-2.034-2.034H22.808l-5.92-2.398a.47.47 0 1 0-.353.87l3.772 1.528h-9.818l.972-2.402c.227-.56.867-.83 1.426-.603l1.907.772a.47.47 0 1 0 .353-.87l-1.907-.773a2.037 2.037 0 0 0-2.65 1.122L9.476 10.53h-.607a2.036 2.036 0 0 0-2.034 2.034v4.486L5.15 21.207a2.02 2.02 0 0 0 .012 1.557c.212.5.606.888 1.11 1.092l.562.228v2.972c0 1.122.913 2.034 2.034 2.034h2.004a.47.47 0 0 0 0-.939H8.868a1.096 1.096 0 0 1-1.095-1.095v-8.394h6.172c-1.084.857-2.53 2.339-3.14 4.474a.474.474 0 0 0 .297.572.474.474 0 0 0 .606-.314c.633-2.218 2.346-3.679 3.311-4.353v9.11h-2.268a.47.47 0 0 0 0 .94h6.44l4.667 1.89a.467.467 0 0 0 .612-.26.47.47 0 0 0-.259-.611l-2.517-1.02h9.818l-.974 2.402c-.226.56-.866.83-1.425.604l-3.157-1.279a.47.47 0 1 0-.352.87l3.156 1.28a2.038 2.038 0 0 0 2.65-1.122l1.115-2.755h.607a2.036 2.036 0 0 0 2.034-2.034v-4.485l1.684-4.158c.204-.503.2-1.056-.012-1.556ZM6.624 22.986a1.09 1.09 0 0 1-.684-1.006 1.087 1.087 0 0 1 .08-.42l.814-2.008v3.519l-.21-.085Zm4.217-7.01c-.081-.189-.139-.491.285-.931.196-.203.443-.332.729-.289.568.085 1.317.742 2.111 1.848.276.384.516.766.701 1.079-1.8-.176-3.483-.898-3.826-1.706Zm4.178.491c-.745-1.12-1.864-2.465-3.024-2.64-.57-.086-1.105.11-1.545.566-.338.35-.849 1.07-.474 1.951.233.548.759 1.013 1.443 1.379H7.773v-5.159c0-.603.492-1.095 1.095-1.095h6.151v4.998Zm19.208 10.589c0 .604-.491 1.095-1.095 1.095H15.958v-9.11c.966.674 2.678 2.135 3.312 4.353a.474.474 0 0 0 .606.314.474.474 0 0 0 .297-.572c-.61-2.135-2.056-3.617-3.14-4.474h17.194v8.394ZM16.31 17.683c.184-.31.421-.688.695-1.07.796-1.111 1.548-1.771 2.117-1.857.286-.043.534.086.73.289.423.44.366.743.285.932-.343.808-2.027 1.53-3.827 1.706Zm17.917.04H19.559c.683-.366 1.21-.83 1.442-1.379.375-.881-.136-1.6-.474-1.951-.44-.456-.974-.652-1.545-.566-1.16.175-2.278 1.52-3.024 2.64V11.47h17.174c.604 0 1.095.49 1.095 1.095v5.158Zm1.753.338-.814 2.008v-3.52l.21.086a1.085 1.085 0 0 1 .597.588 1.088 1.088 0 0 1 .007.838Z"/><path d="M29.01 25.806v.45a.47.47 0 0 0 .94 0v-.437a1.55 1.55 0 0 0 .752-.383c.306-.288.49-.723.49-1.164a1.46 1.46 0 0 0-.326-.945c-.285-.345-.733-.553-1.33-.62-.558-.06-.642-.348-.642-.514 0-.098.029-.586.586-.586.36 0 .515.214.553.278a.47.47 0 0 0 .435.292c.354 0 .558-.368.423-.678a1.508 1.508 0 0 0-.941-.766v-.46a.47.47 0 0 0-.94 0v.459c-.32.091-.586.28-.773.554-.262.383-.282.791-.282.907 0 .593.387 1.328 1.477 1.448.82.09.82.483.82.631a.68.68 0 0 1-.194.48c-.136.129-.347.185-.626.168-.593-.036-.727-.406-.74-.448h-.001a.47.47 0 0 0-.456-.357.474.474 0 0 0-.44.635c.047.15.316.852 1.216 1.056Z"/></g><defs><filter id="na" x=".7" y="2.205" width="40.6" height="35.21" filterUnits="userSpaceOnUse" color-interpolation-filters="sRGB"><feFlood flood-opacity="0" result="BackgroundImageFix"/><feColorMatrix in="SourceAlpha" values="0 0 0 0 0 0 0 0 0 0 0 0 0 0 0 0 0 0 127 0" result="hardAlpha"/><feOffset/><feGaussianBlur stdDeviation="2.15"/><feComposite in2="hardAlpha" operator="out"/><feColorMatrix values="0 0 0 0 0.38561 0 0 0 0 0.236667 0 0 0 0 1 0 0 0 1 0"/><feBlend in2="BackgroundImageFix" result="effect1_dropShadow_330_2223"/><feBlend in="SourceGraphic" in2="effect1_dropShadow_330_2223" result="shape"/></filter></defs></symbol><symbol fill="none" viewBox="0 0 45 40" id="todo-mail" xmlns="http://www.w3.org/2000/svg"><g filter="url(#oa)" fill="#fff"><path d="M33.88 22.659a.51.51 0 0 0-.508.508v8.275l-7.743-7.147 1.856-1.498a.509.509 0 0 0-.64-.792l-4.21 3.4a3.82 3.82 0 0 1-4.674.096l-5.778-4.286a.51.51 0 0 0-.796.285.507.507 0 0 0 .19.532l2.78 2.061-8.34 7.38V17.909l3.8 2.819a.506.506 0 0 0 .786-.25.509.509 0 0 0-.18-.567l-4.406-3.268v-.694c0-.616.501-1.117 1.117-1.117h15.278a.508.508 0 1 0 0-1.017H7.134A2.137 2.137 0 0 0 5 15.948V32.626a2.137 2.137 0 0 0 2.134 2.112h20.692a.508.508 0 1 0 0-1.017H7.134c-.544 0-.998-.39-1.097-.906l9.154-8.102 2.165 1.605a4.827 4.827 0 0 0 2.88.952 4.83 4.83 0 0 0 3.039-1.073l1.554-1.255 8.523 7.867a1.119 1.119 0 0 1-1.098.913h-2.26a.508.508 0 1 0 0 1.017h2.26a2.137 2.137 0 0 0 2.134-2.106v-9.465a.508.508 0 0 0-.508-.508Z"/><path d="M34.794 15.414v-3.015a5.14 5.14 0 0 0-3.501-4.866v-.612c0-.9-.732-1.631-1.631-1.631-.9 0-1.631.732-1.631 1.631v.611a5.126 5.126 0 0 0-1.785 1.036.508.508 0 0 0 .677.759 4.109 4.109 0 0 1 2.739-1.044 4.12 4.12 0 0 1 4.115 4.116v3.089c0 .048.008.097.021.144l.601 2.033-.006.005h-9.465l-.003-.008.492-1.666h5.969a.508.508 0 1 0 0-1.017h-5.84V12.4c0-.498.09-.991.265-1.456a.51.51 0 0 0-.295-.656.509.509 0 0 0-.656.296 5.114 5.114 0 0 0-.331 1.816v3.015l-.58 1.96c-.092.313-.033.642.162.902.195.261.494.411.82.411h2.877a1.883 1.883 0 0 0 1.67 2.746h.367a1.883 1.883 0 0 0 1.67-2.746h2.878c.326 0 .624-.15.82-.41.194-.262.253-.59.16-.903l-.579-1.96Zm-5.132-8.148c-.207 0-.412.013-.615.038V6.92a.615.615 0 0 1 1.229 0v.383a5.15 5.15 0 0 0-.614-.038Zm1.047 12.285a.865.865 0 0 1-.864.865h-.366a.865.865 0 0 1-.002-1.729h.369c.476 0 .863.388.863.864ZM24.416 7.454a2.57 2.57 0 0 0-2.568 2.567.508.508 0 1 0 1.017 0c0-.855.696-1.55 1.55-1.55a.508.508 0 1 0 0-1.017Z"/><path d="M20.165 10.53c.28 0 .509-.228.509-.509a3.746 3.746 0 0 1 3.742-3.742.508.508 0 1 0 0-1.017 4.764 4.764 0 0 0-4.76 4.76.509.509 0 0 0 .51.508Zm14.743-3.076a.508.508 0 1 0 0 1.017c.855 0 1.55.695 1.55 1.55a.508.508 0 1 0 1.017 0 2.57 2.57 0 0 0-2.567-2.567Z"/><path fill-rule="evenodd" clip-rule="evenodd" d="M20.774 10.021a.608.608 0 1 1-1.217 0c0-2.679 2.18-4.859 4.859-4.859a.608.608 0 1 1 0 1.217 3.646 3.646 0 0 0-3.642 3.642Zm13.525-2.059c0-.336.273-.608.609-.608a2.67 2.67 0 0 1 2.667 2.667.608.608 0 1 1-1.217 0c0-.8-.65-1.45-1.45-1.45a.608.608 0 0 1-.609-.609Zm-13.625 2.06a.508.508 0 1 1-1.017 0 4.765 4.765 0 0 1 4.759-4.76.508.508 0 1 1 0 1.017 3.746 3.746 0 0 0-3.742 3.742Zm13.725-2.06c0-.28.228-.508.509-.508a2.57 2.57 0 0 1 2.567 2.567.508.508 0 1 1-1.017 0c0-.855-.695-1.55-1.55-1.55a.508.508 0 0 1-.509-.509Z"/><path d="M34.908 5.262a.508.508 0 1 0 0 1.017 3.746 3.746 0 0 1 3.742 3.742.508.508 0 1 0 1.017 0 4.765 4.765 0 0 0-4.76-4.759Z"/><path fill-rule="evenodd" clip-rule="evenodd" d="M34.3 5.77c0-.335.271-.608.608-.608 2.679 0 4.859 2.18 4.859 4.86a.608.608 0 1 1-1.217 0 3.646 3.646 0 0 0-3.642-3.643.608.608 0 0 1-.609-.608Zm.1 0c0-.28.227-.508.508-.508a4.765 4.765 0 0 1 4.759 4.76.508.508 0 1 1-1.017 0 3.746 3.746 0 0 0-3.742-3.743.508.508 0 0 1-.509-.508Z"/></g><defs><filter id="oa" x=".7" y=".862" width="43.367" height="38.175" filterUnits="userSpaceOnUse" color-interpolation-filters="sRGB"><feFlood flood-opacity="0" result="BackgroundImageFix"/><feColorMatrix in="SourceAlpha" values="0 0 0 0 0 0 0 0 0 0 0 0 0 0 0 0 0 0 127 0" result="hardAlpha"/><feOffset/><feGaussianBlur stdDeviation="2.15"/><feComposite in2="hardAlpha" operator="out"/><feColorMatrix values="0 0 0 0 0.38561 0 0 0 0 0.236667 0 0 0 0 1 0 0 0 1 0"/><feBlend in2="BackgroundImageFix" result="effect1_dropShadow_330_2189"/><feBlend in="SourceGraphic" in2="effect1_dropShadow_330_2189" result="shape"/></filter></defs></symbol><symbol fill="none" viewBox="0 0 40 45" id="todo-wallet" xmlns="http://www.w3.org/2000/svg"><g filter="url(#pa)" fill="#fff"><path d="M30.698 18.989H18.076a4.003 4.003 0 0 0 .939-2.586c0-2.175-1.713-3.945-3.82-3.945-2.105 0-3.818 1.77-3.818 3.945 0 .989.354 1.893.938 2.586H9.302c-1.82 0-3.302 1.53-3.302 3.41v4.025c0 .377.296.683.66.683.365 0 .66-.306.66-.683V22.4c0-1.129.89-2.047 1.982-2.047h18.49c1.093 0 1.982.918 1.982 2.047v3.683h-6.868c-1.821 0-3.302 1.53-3.302 3.411s1.481 3.411 3.302 3.411h6.868v3.684c0 1.128-.89 2.047-1.982 2.047H9.303c-1.093 0-1.981-.919-1.981-2.047v-4.03a.672.672 0 0 0-.66-.682.672.672 0 0 0-.661.682v4.03c0 1.88 1.481 3.41 3.302 3.41h21.396C32.518 40 34 38.47 34 36.59v-14.19c0-1.88-1.481-3.41-3.302-3.41Zm-15.502-5.167c1.377 0 2.498 1.158 2.498 2.581s-1.12 2.581-2.498 2.581c-1.378 0-2.499-1.158-2.499-2.58 0-1.424 1.121-2.582 2.499-2.582Zm15.236 6.531h.266c1.093 0 1.981.918 1.981 2.047v3.683h-1.585V22.4c0-.768-.246-1.476-.662-2.047Zm-9.508 9.141c0-1.128.89-2.046 1.982-2.046h9.773v4.093h-9.773c-1.093 0-1.982-.918-1.982-2.047Zm9.774 9.142h-.266c.416-.571.662-1.28.662-2.047v-3.684h1.585v3.684c0 1.128-.889 2.047-1.98 2.047Z"/><path d="M22.737 28.812a.655.655 0 0 0-.468.2.698.698 0 0 0 0 .965c.124.127.292.199.468.2a.656.656 0 0 0 .466-.2.7.7 0 0 0 0-.965.655.655 0 0 0-.466-.2Zm2.067-14.421c2.106 0 3.82-1.77 3.82-3.945 0-2.176-1.714-3.945-3.82-3.945s-3.819 1.77-3.819 3.945 1.713 3.945 3.82 3.945Zm0-6.526c1.378 0 2.499 1.158 2.499 2.58 0 1.424-1.121 2.582-2.499 2.582-1.377 0-2.498-1.158-2.498-2.581s1.12-2.581 2.498-2.581Zm-6.45 3.86c.365 0 .66-.305.66-.682v-5.36a.672.672 0 0 0-.66-.683.672.672 0 0 0-.66.682v5.36c0 .378.296.683.66.683Zm-3.17-2.36c.365 0 .661-.304.661-.681V5.682a.672.672 0 0 0-.66-.682.672.672 0 0 0-.66.682v3.002c0 .377.295.682.66.682ZM6.66 30.178a.655.655 0 0 0 .467-.2.7.7 0 0 0 0-.965.654.654 0 0 0-.467-.2.655.655 0 0 0-.467.2.7.7 0 0 0 0 .965c.123.127.294.2.467.2Z"/></g><defs><filter id="pa" x="1.7" y=".7" width="36.6" height="43.6" filterUnits="userSpaceOnUse" color-interpolation-filters="sRGB"><feFlood flood-opacity="0" result="BackgroundImageFix"/><feColorMatrix in="SourceAlpha" values="0 0 0 0 0 0 0 0 0 0 0 0 0 0 0 0 0 0 127 0" result="hardAlpha"/><feOffset/><feGaussianBlur stdDeviation="2.15"/><feComposite in2="hardAlpha" operator="out"/><feColorMatrix values="0 0 0 0 0.38561 0 0 0 0 0.236667 0 0 0 0 1 0 0 0 1 0"/><feBlend in2="BackgroundImageFix" result="effect1_dropShadow_330_2214"/><feBlend in="SourceGraphic" in2="effect1_dropShadow_330_2214" result="shape"/></filter></defs></symbol><symbol fill="none" viewBox="0 0 18 18" id="union" xmlns="http://www.w3.org/2000/svg"><path fill-rule="evenodd" clip-rule="evenodd" d="m7.233 9-6.82 6.82 1.769 1.768L9 10.768l6.819 6.82 1.768-1.768L10.768 9l6.82-6.818L15.82.414 9 7.233 2.183.413.414 2.183 7.233 9Z" fill="#916DAE"/></symbol><symbol fill="none" viewBox="0 0 18 18" id="usd" xmlns="http://www.w3.org/2000/svg"><path d="M9 0a9 9 0 1 0 0 18A9 9 0 0 0 9 0Zm2.585 12.548c-.392.478-.904.8-1.5.963-.26.07-.378.208-.363.478.011.267 0 .53-.003.796 0 .237-.123.363-.356.37-.152.004-.304.008-.456.008-.133 0-.266 0-.4-.004-.251-.003-.37-.148-.37-.392-.004-.193-.004-.39-.004-.582-.003-.43-.018-.444-.43-.51-.525-.086-1.044-.205-1.525-.438-.378-.185-.419-.278-.311-.678.081-.296.163-.592.255-.885.067-.215.13-.311.245-.311.066 0 .152.033.266.093.534.277 1.1.433 1.697.507.1.011.2.019.3.019.277 0 .548-.052.81-.167.664-.29.767-1.056.208-1.515a2.702 2.702 0 0 0-.633-.37c-.582-.256-1.185-.449-1.734-.778-.888-.533-1.451-1.263-1.385-2.345.074-1.222.767-1.985 1.89-2.392.462-.167.466-.163.466-.645 0-.163-.004-.326.004-.492.01-.363.07-.426.433-.437h.422c.689 0 .689.03.693.774.003.548.003.548.548.633.418.067.815.189 1.2.36.211.092.292.24.226.466-.097.333-.19.67-.293 1-.066.2-.13.293-.248.293a.595.595 0 0 1-.252-.078 3.787 3.787 0 0 0-1.904-.378 1.494 1.494 0 0 0-.507.104c-.578.252-.67.889-.178 1.281.248.2.534.341.826.463.511.211 1.022.415 1.508.682 1.526.852 1.94 2.789.855 4.107Z" fill="#E6D31F"/></symbol></svg>