<svg width="26" height="26" viewBox="0 0 26 26" fill="none" xmlns="http://www.w3.org/2000/svg">
<path d="M21.198 8.42258C21.2792 8.29426 21.3133 8.14178 21.2947 7.99111C21.2761 7.84043 21.2058 7.70086 21.0959 7.59616L20.7059 7.20617C20.3365 6.83676 19.8355 6.62923 19.313 6.62923C18.7906 6.62923 18.2896 6.83676 17.9202 7.20617L16.1281 8.99828L16.994 9.86417C17.0286 9.89054 17.0576 9.92346 17.0795 9.96107C17.1014 9.99867 17.1156 10.0402 17.1215 10.0833C17.1273 10.1264 17.1246 10.1703 17.1134 10.2123C17.1023 10.2544 17.083 10.2938 17.0566 10.3284C17.0034 10.3983 16.9246 10.4442 16.8375 10.4559C16.7504 10.4677 16.6622 10.4444 16.5924 10.3911C16.532 10.3633 15.6638 9.46256 15.6638 9.46256L7.78963 17.3367C7.5884 17.5152 7.42584 17.7329 7.31196 17.9765C7.19807 18.2201 7.13528 18.4845 7.12745 18.7533C7.11962 19.0221 7.16692 19.2897 7.26643 19.5395C7.36594 19.7894 7.51556 20.0162 7.70606 20.206L8.09141 20.5913C8.20169 20.7043 8.34898 20.7738 8.5063 20.787C8.66362 20.8002 8.82043 20.7563 8.94801 20.6633C9.21741 20.4691 9.54711 20.3772 9.87813 20.4038C10.2091 20.4305 10.5199 20.5741 10.7547 20.8089C10.9895 21.0438 11.1331 21.3545 11.1598 21.6855C11.1865 22.0165 11.0945 22.3462 10.9003 22.6156C10.8073 22.7432 10.7634 22.9 10.7766 23.0573C10.7898 23.2146 10.8593 23.3619 10.9723 23.4722L11.3553 23.8552C11.7247 24.2246 12.2257 24.4322 12.7481 24.4322C13.2706 24.4322 13.7716 24.2246 14.141 23.8552L22.0987 15.8975C22.0987 15.8975 21.1957 15.0223 21.1702 14.9689C21.139 14.9072 21.1281 14.8372 21.139 14.769C21.15 14.7007 21.1822 14.6376 21.231 14.5887C21.2799 14.5398 21.343 14.5076 21.4113 14.4967C21.4795 14.4858 21.5495 14.4967 21.6112 14.5279C21.7111 14.5673 22.5514 15.4448 22.5514 15.4448L24.3551 13.6411C24.7245 13.2717 24.9321 12.7707 24.9321 12.2482C24.9321 11.7258 24.7245 11.2248 24.3551 10.8554L23.9396 10.4399C23.8341 10.3355 23.6963 10.27 23.5487 10.2539C23.4012 10.2379 23.2526 10.2724 23.1271 10.3517C22.8585 10.5174 22.5419 10.5876 22.2284 10.551C21.9149 10.5143 21.623 10.373 21.3998 10.1499C21.1767 9.92669 21.0353 9.63476 20.9987 9.32129C20.9621 9.00783 21.0323 8.69117 21.198 8.42258ZM20.5434 13.4136C20.605 13.4752 20.6395 13.5587 20.6395 13.6457C20.6395 13.7328 20.605 13.8163 20.5434 13.8779C20.4818 13.9394 20.3983 13.974 20.3113 13.974C20.2242 13.974 20.1407 13.9394 20.0791 13.8779L19.4523 13.2511C19.3908 13.1895 19.3562 13.106 19.3562 13.0189C19.3562 12.9319 19.3908 12.8484 19.4523 12.7868C19.5139 12.7252 19.5974 12.6907 19.6845 12.6907C19.7715 12.6907 19.855 12.7252 19.9166 12.7868L20.5434 13.4136ZM18.7675 11.6377C18.8291 11.6993 18.8637 11.7828 18.8637 11.8699C18.8637 11.9569 18.8291 12.0404 18.7675 12.102C18.706 12.1636 18.6224 12.1981 18.5354 12.1981C18.4483 12.1981 18.3648 12.1636 18.3032 12.102L17.6718 11.4706C17.6103 11.409 17.5757 11.3255 17.5757 11.2384C17.5757 11.1514 17.6103 11.0679 17.6718 11.0063C17.7334 10.9447 17.8169 10.9101 17.904 10.9101C17.991 10.9101 18.0745 10.9447 18.1361 11.0063L18.7675 11.6377ZM14.4753 9.72256C14.2501 9.72024 13.802 9.72256 13.5792 9.72256C13.4921 9.72287 13.4084 9.68855 13.3466 9.62717C13.2848 9.56579 13.2499 9.48236 13.2496 9.39524C13.2492 9.30813 13.2836 9.22445 13.3449 9.16263C13.4063 9.10082 13.4898 9.06591 13.5769 9.0656H14.6308L14.6308 7.0692C14.6296 6.62937 14.4543 6.20791 14.1433 5.8969C13.8323 5.5859 13.4108 5.41063 12.971 5.4094L12.5555 5.40708C12.4111 5.41122 12.2722 5.46281 12.1601 5.55387C12.0481 5.64494 11.9692 5.77039 11.9356 5.91082C11.8776 6.14286 11.7437 6.34886 11.5553 6.49615C11.3668 6.64344 11.1346 6.72358 10.8954 6.72384C10.6562 6.72411 10.4238 6.64449 10.235 6.49763C10.0462 6.35076 9.91191 6.14505 9.85335 5.91315C9.8207 5.76477 9.73761 5.63231 9.61824 5.53834C9.49887 5.44437 9.35061 5.3947 9.19872 5.39779L8.78551 5.39779C8.34541 5.40013 7.924 5.576 7.6128 5.8872C7.30159 6.19841 7.12573 6.61982 7.12339 7.05992L7.12107 9.05864L8.17963 9.07257C8.26674 9.07288 8.35017 9.10778 8.41155 9.1696C8.47294 9.23142 8.50725 9.31509 8.50694 9.40221C8.50663 9.48932 8.47173 9.57275 8.40991 9.63414C8.34809 9.69552 8.26442 9.72983 8.1773 9.72952L7.12339 9.72952L7.12803 17.0791L14.4753 9.72256ZM11.209 9.39524C11.2089 9.3519 11.2173 9.30896 11.2338 9.26889C11.2503 9.22881 11.2746 9.1924 11.3052 9.16176C11.3358 9.13111 11.3723 9.10684 11.4123 9.09033C11.4524 9.07383 11.4953 9.06543 11.5387 9.0656L12.2653 9.06793C12.352 9.06818 12.4351 9.10275 12.4964 9.16408C12.5578 9.22541 12.5923 9.30851 12.5926 9.39524C12.5923 9.48197 12.5578 9.56508 12.4964 9.62641C12.4351 9.68773 12.352 9.7223 12.2653 9.72256L11.5364 9.72256C11.4496 9.7223 11.3665 9.68773 11.3052 9.62641C11.2439 9.56508 11.2093 9.48197 11.209 9.39524ZM9.17086 9.39524C9.17068 9.3519 9.17909 9.30896 9.19559 9.26889C9.2121 9.22881 9.23637 9.1924 9.26701 9.16176C9.29766 9.13111 9.33407 9.10684 9.37414 9.09033C9.41422 9.07383 9.45716 9.06543 9.5005 9.0656L10.2248 9.0656C10.3122 9.0656 10.396 9.10033 10.4579 9.16215C10.5197 9.22397 10.5544 9.30782 10.5544 9.39524C10.5544 9.48267 10.5197 9.56651 10.4579 9.62833C10.396 9.69015 10.3122 9.72488 10.2248 9.72488L9.50746 9.73185C9.46295 9.73299 9.41867 9.72506 9.37731 9.70855C9.33596 9.69204 9.2984 9.66728 9.26691 9.6358C9.23542 9.60431 9.21067 9.56675 9.19416 9.52539C9.17765 9.48404 9.16972 9.43976 9.17086 9.39524Z" fill="white"/>
</svg>
