<svg width="31" height="27" viewBox="0 0 31 27" fill="none" xmlns="http://www.w3.org/2000/svg">
<path d="M22.2006 9.04115L15.3386 16.1573C14.5954 16.928 14.6065 18.152 15.3636 18.9091L18.0658 21.6113C18.8368 22.3823 20.0834 22.3936 20.8683 21.6367L27.5339 15.2092C28.3393 14.4326 28.3509 13.1464 27.5598 12.3553L24.2273 9.02273C23.6655 8.46092 22.7521 8.46923 22.2006 9.04115Z" fill="#172994"/>
<path d="M16.3806 17.8392H16.3805C16.2865 17.8391 16.1942 17.8137 16.1138 17.7655L16.1651 17.6797L16.1138 17.7655C16.0333 17.7173 15.9677 17.6481 15.9245 17.5654L15.2121 16.2008L13.6632 16.4399C13.6631 16.4399 13.663 16.4399 13.6629 16.44C13.556 16.4572 13.4462 16.4408 13.3493 16.3929L13.3933 16.3038L13.3493 16.3929C13.2522 16.345 13.1728 16.2679 13.1231 16.1724C13.0734 16.0768 13.056 15.968 13.0738 15.8619C13.0915 15.756 13.1432 15.6587 13.2209 15.584C13.2211 15.5839 13.2212 15.5838 13.2213 15.5837L14.3279 14.5028L13.6193 13.1407L13.6192 13.1406L13.7079 13.0944C13.6683 13.0185 13.6543 12.9324 13.668 12.8482C13.6816 12.7641 13.7222 12.6864 13.7839 12.6262L16.3806 17.8392ZM16.3806 17.8392C16.4075 17.8392 16.4346 17.8369 16.4611 17.8326M16.3806 17.8392L16.4611 17.8326M17.4116 11.9776C17.3147 11.9294 17.2048 11.9128 17.0977 11.9299C16.9908 11.947 16.8919 11.9969 16.8154 12.0729C16.8153 12.073 16.8152 12.0731 16.8151 12.0732L15.7065 13.1567L17.5874 12.4924L17.686 12.5091C17.686 12.509 17.6861 12.5089 17.6861 12.5088C17.704 12.4029 17.6868 12.2941 17.6373 12.1985C17.5878 12.1029 17.5086 12.0257 17.4116 11.9776ZM17.4116 11.9776L17.3671 12.0671L17.4116 11.9775C17.4116 11.9776 17.4116 11.9776 17.4116 11.9776ZM16.4611 17.8326C16.4613 17.8326 16.4614 17.8325 16.4616 17.8325L16.4453 17.7339L16.4606 17.8327C16.4608 17.8327 16.4609 17.8326 16.4611 17.8326ZM15.4978 15.1421L15.4997 15.1421C15.5938 15.1421 15.6862 15.1676 15.7667 15.2158C15.8473 15.264 15.9129 15.3333 15.9561 15.4161L15.9561 15.4161L16.1212 15.7327L16.1779 15.3845L16.1779 15.3845C16.1951 15.279 16.2459 15.1819 16.3227 15.107C16.3995 15.0321 16.4982 14.9831 16.6046 14.9667L15.4978 15.1421ZM15.4978 15.1421C15.4713 15.1426 15.4447 15.1452 15.4183 15.15L15.0653 15.2045L15.3166 14.9588C15.3166 14.9588 15.3166 14.9588 15.3166 14.9588C15.3933 14.8839 15.444 14.7868 15.4612 14.6814C15.4783 14.576 15.4608 14.4681 15.4114 14.3732L15.4113 14.3731L15.2491 14.0624L15.571 14.2224M15.4978 15.1421L16.6048 14.9666L16.9543 14.9122L16.6386 14.7552C16.6386 14.7551 16.6386 14.7551 16.6385 14.7551C16.5423 14.7073 16.4636 14.6306 16.414 14.5358C16.3645 14.441 16.3469 14.3331 16.3639 14.2276L16.3639 14.2275L16.4201 13.8808L16.165 14.1307L16.1648 14.1309C16.088 14.2057 15.9892 14.2546 15.8828 14.271C15.7763 14.2873 15.6672 14.2704 15.571 14.2224M15.571 14.2224L15.6157 14.1329M15.571 14.2224L15.5712 14.2224L15.6157 14.1329M15.6157 14.1329C15.6933 14.1716 15.7815 14.1854 15.8676 14.1721C15.9537 14.1589 16.0333 14.1194 16.095 14.0593L15.6157 14.1329ZM20.0294 10.0763L19.9561 10.1478L20.0293 10.2194L20.6128 10.7897L20.6827 10.8579L20.7526 10.7897L21.3364 10.2198L21.4097 10.1483L21.3365 10.0767L20.753 9.50637L20.6832 9.43808L20.6133 9.50632L20.0294 10.0763ZM18.8614 8.93556L18.7881 9.00711L18.8614 9.07866L19.4453 9.64882L19.5152 9.71705L19.5851 9.64881L20.1687 9.07869L20.2419 9.00716L20.1687 8.93563L19.5851 8.36546L19.5152 8.29721L19.4453 8.36544L18.8614 8.93556ZM17.6941 7.79574L17.6208 7.86729L17.6941 7.93883L18.278 8.50895L18.3479 8.57717L18.4177 8.50893L19.0014 7.93882L19.0746 7.86729L19.0014 7.79575L18.4177 7.22559L18.3479 7.15734L18.278 7.22557L17.6941 7.79574ZM22.3643 12.3571L22.291 12.4286L22.3643 12.5001L22.9481 13.0703L23.018 13.1385L23.0878 13.0703L23.6715 12.5001L23.7448 12.4286L23.6715 12.3571L23.0878 11.7869L23.018 11.7187L22.9481 11.7869L22.3643 12.3571ZM21.1967 11.2166L21.1235 11.2881L21.1967 11.3597L21.7806 11.9298L21.8505 11.998L21.9204 11.9298L22.504 11.3594L22.5772 11.2879L22.504 11.2164L21.9201 10.6462L21.8502 10.578L21.7804 10.6462L21.1967 11.2166ZM17.4357 14.0228L17.3696 13.9899L17.325 14.0794L17.4237 14.0957L17.4357 14.0228ZM18.6787 15.6636L18.6787 15.6636L18.6635 15.5647L18.6787 15.6636ZM17.1298 15.9033L17.1414 15.8314L17.0427 15.8156L17.0579 15.9144L17.1298 15.9033Z" fill="white" stroke="white" stroke-width="0.2"/>
<g filter="url(#filter0_d_3_429)">
<path d="M27.6372 9.05642L25.594 7.06046L25.3021 7.34552C25.1489 7.49765 24.9571 7.60746 24.7464 7.66382C24.5356 7.72018 24.3134 7.72107 24.1021 7.66641C23.891 7.61169 23.6983 7.50335 23.5439 7.35241C23.3894 7.20146 23.2786 7.01328 23.2226 6.80696C23.1667 6.60064 23.1676 6.38354 23.2254 6.1777C23.2831 5.97185 23.3955 5.78459 23.5513 5.63493L23.8432 5.34987L21.7999 3.35437C21.3164 2.88188 20.5322 2.88188 20.0485 3.35437L18.5895 4.7797L17.7141 3.92448C17.2304 3.45199 16.4464 3.45199 15.9626 3.92448L3.36278 16.2323C2.87907 16.7048 2.87907 17.4709 3.36278 17.9432L5.40604 19.939L5.69765 19.654C6.18781 19.1969 6.95915 19.1969 7.44905 19.654C7.93275 20.1263 7.93275 20.8923 7.44905 21.3646L7.15722 21.6497L9.20049 23.6459C9.68393 24.118 10.4678 24.118 10.9513 23.6459L12.4105 22.2201L13.2863 23.0754C13.7698 23.5477 14.5537 23.5477 15.0374 23.0754L27.6372 10.7668C28.1209 10.2943 28.1209 9.5283 27.6372 9.05601V9.05642ZM10.3672 23.075C10.3289 23.1125 10.2834 23.1423 10.2333 23.1626C10.1832 23.183 10.1295 23.1934 10.0753 23.1934C10.021 23.1934 9.96733 23.183 9.91724 23.1626C9.86714 23.1423 9.82165 23.1125 9.78336 23.075L8.29536 21.6207C8.83788 20.8212 8.72886 19.7591 8.03455 19.0809C7.34008 18.4027 6.25271 18.2963 5.43447 18.8265L3.94606 17.373C3.90772 17.3356 3.87732 17.2911 3.85657 17.2422C3.83582 17.1933 3.82514 17.1409 3.82514 17.088C3.82514 17.035 3.83582 16.9826 3.85657 16.9337C3.87732 16.8848 3.90772 16.8403 3.94606 16.8029L16.5463 4.4947C16.6237 4.4189 16.7287 4.37636 16.8383 4.37636C16.9479 4.37636 17.0529 4.4189 17.1303 4.4947L18.0058 5.34992L7.44868 15.6628C6.96534 16.1351 6.96534 16.9007 7.44868 17.373L9.49148 19.3689L9.78336 19.0838C10.2668 18.6113 11.051 18.6113 11.5345 19.0838C12.0182 19.5562 12.0182 20.3221 11.5345 20.7945L11.2423 21.0795L11.8264 21.6497L10.3672 23.075ZM27.0536 10.197L14.4533 22.5048C14.292 22.6623 14.0307 22.6623 13.8696 22.5048L12.3812 21.051C12.9222 20.2515 12.8121 19.1906 12.1182 18.5133C11.4241 17.8374 10.3396 17.7305 9.52115 18.2572L8.03233 16.8029C7.87109 16.6456 7.87109 16.3902 8.03233 16.2327L20.6322 3.92453C20.7096 3.84888 20.8147 3.80633 20.9242 3.80625C21.0338 3.80625 21.1388 3.84893 21.2162 3.92453L22.7046 5.37608C22.1627 6.1754 22.2719 7.23671 22.9659 7.91473C23.6598 8.59259 24.7465 8.69944 25.5647 8.17025L27.0539 9.62497C27.215 9.78221 27.215 10.0376 27.0539 10.1951L27.0536 10.197Z" fill="white"/>
<path d="M13.9395 22.4333L13.9395 22.4334C14.0617 22.5528 14.261 22.5529 14.3834 22.4333L26.961 10.1477L26.9613 10.1458L26.984 10.1236C27.105 10.0053 27.1049 9.81449 26.9841 9.69651L26.9841 9.6965L25.5509 8.29654C24.7023 8.80233 23.6044 8.67831 22.896 7.98626L22.9659 7.91473L22.896 7.98625C22.1878 7.29437 22.0594 6.22113 22.5761 5.3904L21.1464 3.99612L21.1464 3.99607C21.0878 3.9389 21.008 3.90626 20.9243 3.90625L13.9395 22.4333ZM13.9395 22.4333L12.5097 21.0367C13.0254 20.2057 12.8962 19.1329 12.1881 18.4417L12.188 18.4416M13.9395 22.4333L12.188 18.4416M12.188 18.4416C11.4794 17.7517 10.3837 17.6277 9.53511 18.131L8.1022 16.7314L8.10216 16.7313M12.188 18.4416L8.10216 16.7313M8.10216 16.7313C7.98117 16.6133 7.98111 16.4226 8.1022 16.3043M8.10216 16.7313L8.1022 16.3043M8.1022 16.3043L20.7021 3.99607M8.1022 16.3043L20.7021 3.99607M20.7021 3.99607C20.7606 3.9389 20.8404 3.90633 20.9242 3.90625L20.7021 3.99607ZM23.9131 5.27833L21.8698 3.28285C21.3475 2.77238 20.5012 2.7724 19.9787 3.28283L20.0485 3.35437L19.9787 3.28284L18.5895 4.63991L17.7839 3.85295L17.7141 3.92448L17.7839 3.85295C17.2614 3.3425 16.4154 3.34251 15.8928 3.85294L15.9626 3.92448L15.8927 3.85295L3.2929 16.1608C2.76905 16.6725 2.76902 17.5032 3.2929 18.0147C3.29291 18.0147 3.29291 18.0147 3.29292 18.0147L5.33616 20.0106L5.40607 20.0788L5.47594 20.0105L5.76586 19.7271C5.76614 19.7268 5.76643 19.7266 5.76672 19.7263C6.21823 19.3061 6.92877 19.3061 7.37999 19.7263C7.8227 20.1594 7.82243 20.8602 7.37918 21.293L7.37916 21.293L7.08734 21.5781L7.01413 21.6497L7.08734 21.7212L9.13061 23.7175L9.13062 23.7175C9.65292 24.2275 10.4988 24.2275 11.0211 23.7175L11.0211 23.7175L12.4105 22.3599L13.2165 23.147C13.7388 23.6571 14.5847 23.6571 15.1072 23.147L15.1073 23.1469L27.7071 10.8383C28.231 10.3266 28.231 9.496 27.7071 8.98446L27.5372 8.81861V8.81894L25.6638 6.98893L25.594 6.92067L25.5241 6.98893L25.2323 7.27398L25.2317 7.27455C25.0909 7.41425 24.9146 7.51532 24.7205 7.56722C24.5265 7.61912 24.3217 7.61994 24.1272 7.5696C23.9327 7.5192 23.7556 7.4195 23.6138 7.28088C23.4719 7.14227 23.3704 6.9697 23.3192 6.78079C23.2679 6.5919 23.2688 6.39317 23.3216 6.2047C23.3745 6.01622 23.4775 5.84448 23.6206 5.70704L23.6212 5.70647L23.9131 5.42141L23.9863 5.34987L23.9131 5.27833ZM10.2973 23.0035L10.2972 23.0036C10.2683 23.0319 10.2339 23.0545 10.1957 23.07L10.2333 23.1626L10.1957 23.07C10.1576 23.0854 10.1167 23.0934 10.0753 23.0934C10.0339 23.0934 9.99293 23.0854 9.95482 23.07L9.91724 23.1626L9.95482 23.07C9.91671 23.0545 9.88225 23.0319 9.85335 23.0036L9.85325 23.0035L8.42387 21.6065C8.94116 20.7756 8.81296 19.7015 8.10442 19.0094L8.03455 19.0809L8.10441 19.0093C7.39542 18.3169 6.29687 18.1934 5.44824 18.7002L4.01592 17.3015L4.01592 17.3015C3.98698 17.2732 3.96416 17.2398 3.94863 17.2032C3.9331 17.1666 3.92514 17.1274 3.92514 17.088C3.92514 17.0485 3.9331 17.0093 3.94863 16.9727C3.96416 16.9361 3.98698 16.9027 4.01592 16.8745L4.01593 16.8744L16.6161 4.56623L16.6162 4.56614C16.6747 4.5089 16.7545 4.47636 16.8383 4.47636C16.9221 4.47636 17.0019 4.5089 17.0604 4.56614L17.0604 4.56623L17.8627 5.34992L7.37881 15.5913L7.3788 15.5913C6.8553 16.1028 6.85531 16.933 7.3788 17.4445L7.44868 17.373L7.3788 17.4445L9.4216 19.4404L9.49148 19.5087L9.56136 19.4405L9.85323 19.1553L9.85325 19.1553C10.2978 18.7208 11.02 18.7208 11.4646 19.1553L11.4647 19.1554C11.9082 19.5885 11.9082 20.2898 11.4647 20.7229L11.1725 21.0079L11.0991 21.0795L11.1725 21.1511L11.6832 21.6497L10.2973 23.0035ZM9.78336 23.075L8.29536 21.6207L9.78336 23.075Z" stroke="white" stroke-width="0.2"/>
</g>
<defs>
<filter id="filter0_d_3_429" x="0.0998046" y="0.100049" width="30.8004" height="26.7999" filterUnits="userSpaceOnUse" color-interpolation-filters="sRGB">
<feFlood flood-opacity="0" result="BackgroundImageFix"/>
<feColorMatrix in="SourceAlpha" type="matrix" values="0 0 0 0 0 0 0 0 0 0 0 0 0 0 0 0 0 0 127 0" result="hardAlpha"/>
<feOffset/>
<feGaussianBlur stdDeviation="1.35"/>
<feComposite in2="hardAlpha" operator="out"/>
<feColorMatrix type="matrix" values="0 0 0 0 0.384314 0 0 0 0 0.235294 0 0 0 0 1 0 0 0 1 0"/>
<feBlend mode="normal" in2="BackgroundImageFix" result="effect1_dropShadow_3_429"/>
<feBlend mode="normal" in="SourceGraphic" in2="effect1_dropShadow_3_429" result="shape"/>
</filter>
</defs>
</svg>
