<svg width="42" height="40" viewBox="0 0 42 40" fill="none" xmlns="http://www.w3.org/2000/svg">
<g filter="url(#filter0_d_330_2223)">
<path d="M36.838 16.8565C36.6262 16.3561 36.2322 15.9682 35.7285 15.7642L35.166 15.5364V12.5644C35.166 11.4427 34.2535 10.5302 33.1318 10.5302H22.8083L16.8875 8.13167C16.8304 8.1085 16.7692 8.09682 16.7075 8.0973C16.6459 8.09777 16.5849 8.11039 16.5281 8.13444C16.4713 8.15848 16.4198 8.19348 16.3765 8.23744C16.3332 8.28139 16.2991 8.33344 16.2759 8.39061C16.2527 8.44777 16.2411 8.50894 16.2415 8.57061C16.242 8.63229 16.2546 8.69326 16.2787 8.75006C16.3027 8.80686 16.3377 8.85836 16.3817 8.90163C16.4256 8.9449 16.4777 8.97909 16.5348 9.00223L20.3067 10.5302H10.4886L11.4615 8.12842C11.6882 7.56886 12.3279 7.29798 12.8874 7.52467L14.794 8.29705C14.8512 8.32024 14.9124 8.33194 14.974 8.33148C15.0357 8.33102 15.0967 8.3184 15.1535 8.29435C15.2103 8.2703 15.2618 8.2353 15.3051 8.19133C15.3484 8.14736 15.3825 8.09529 15.4057 8.03811C15.4288 7.98095 15.4405 7.91978 15.44 7.85811C15.4395 7.79644 15.4269 7.73546 15.4029 7.67867C15.3788 7.62187 15.3438 7.57037 15.2999 7.5271C15.2559 7.48383 15.2039 7.44964 15.1467 7.42648L13.24 6.65411C12.2007 6.23298 11.0121 6.73611 10.5909 7.77567L9.4751 10.5302H8.86816C7.74654 10.5302 6.83404 11.4427 6.83404 12.5644V17.0498L5.14997 21.2071C4.94591 21.7107 4.95022 22.2636 5.1621 22.764C5.37391 23.2644 5.76791 23.6522 6.27154 23.8562L6.8341 24.0841V27.056C6.8341 28.1777 7.7466 29.0902 8.86822 29.0902H10.8724C10.997 29.0902 11.1164 29.0407 11.2045 28.9527C11.2926 28.8646 11.342 28.7452 11.342 28.6206C11.342 28.496 11.2926 28.3766 11.2045 28.2885C11.1164 28.2005 10.997 28.151 10.8724 28.151H8.86822C8.26454 28.151 7.77335 27.6599 7.77335 27.0561V18.6624H13.9452C12.861 19.5189 11.4144 21.0007 10.8045 23.1357C10.7369 23.3723 10.8697 23.6275 11.102 23.7083C11.3535 23.7958 11.6347 23.6495 11.7077 23.3937C12.3412 21.176 14.0538 19.7151 15.0192 19.0409V28.1509H12.751C12.6265 28.1509 12.507 28.2004 12.419 28.2885C12.3309 28.3765 12.2814 28.496 12.2814 28.6205C12.2814 28.7451 12.3309 28.8645 12.419 28.9526C12.507 29.0407 12.6265 29.0902 12.751 29.0902H19.1918L23.8583 30.9806C23.9143 31.0034 23.9741 31.0151 24.0345 31.0151C24.1281 31.0151 24.2195 30.9872 24.2971 30.9349C24.3746 30.8826 24.4349 30.8084 24.47 30.7217C24.4931 30.6645 24.5048 30.6033 24.5043 30.5417C24.5039 30.48 24.4913 30.419 24.4672 30.3622C24.4432 30.3054 24.4082 30.2539 24.3642 30.2106C24.3203 30.1674 24.2682 30.1332 24.211 30.11L21.6935 29.0902H31.5115L30.5385 31.492C30.3118 32.0515 29.6719 32.3224 29.1127 32.0957L25.9563 30.8171C25.8992 30.7939 25.838 30.7823 25.7763 30.7827C25.7147 30.7832 25.6537 30.7958 25.5969 30.8199C25.5401 30.8439 25.4886 30.8789 25.4453 30.9229C25.4021 30.9668 25.3679 31.0189 25.3447 31.076C25.3216 31.1332 25.3099 31.1944 25.3103 31.256C25.3108 31.3177 25.3234 31.3787 25.3475 31.4355C25.3715 31.4923 25.4065 31.5438 25.4505 31.5871C25.4944 31.6303 25.5465 31.6645 25.6037 31.6877L28.76 32.9663C29.0018 33.0646 29.2603 33.1151 29.5212 33.1152C30.3255 33.1152 31.089 32.6349 31.4092 31.8447L32.525 29.0902H33.1319C34.2536 29.0902 35.1661 28.1777 35.1661 27.056V22.5706L36.8502 18.4134C37.0541 17.9097 37.0498 17.3569 36.838 16.8565ZM6.62422 22.9857C6.49077 22.932 6.36927 22.8524 6.26677 22.7515C6.16426 22.6506 6.08278 22.5304 6.02704 22.3978C5.97061 22.2655 5.94098 22.1233 5.93986 21.9795C5.93874 21.8356 5.96617 21.693 6.02054 21.5599L6.83404 19.5517V23.0707L6.62422 22.9857ZM10.8405 15.9769C10.76 15.7875 10.7022 15.485 11.1264 15.0449C11.3217 14.8423 11.5692 14.7129 11.8548 14.756C12.4227 14.8415 13.1724 15.4979 13.966 16.6041C14.2417 16.9884 14.4818 17.3701 14.667 17.6825C12.8672 17.5066 11.1839 16.7849 10.8405 15.9769ZM15.0191 16.4674C14.2735 15.3475 13.1548 14.0024 11.9953 13.8272C11.4243 13.741 10.89 13.9367 10.4502 14.393C10.1123 14.7434 9.60147 15.463 9.97604 16.3442C10.2089 16.8922 10.7349 17.3568 11.419 17.7229H7.77335V12.5644C7.77335 11.9606 8.26454 11.4695 8.86822 11.4695H15.0192V16.4674H15.0191ZM34.2267 27.056C34.2267 27.6598 33.7355 28.1509 33.1318 28.1509H15.9584V19.0409C16.9237 19.7151 18.6363 21.176 19.2698 23.3937C19.343 23.65 19.6238 23.795 19.8756 23.7083C20.1081 23.6282 20.2405 23.3719 20.1731 23.1357C19.5632 21.0007 18.1166 19.5189 17.0323 18.6624H34.2267V27.056ZM16.3103 17.6825C16.4937 17.3731 16.7313 16.9954 17.0047 16.6135C17.8007 15.5017 18.5528 14.842 19.1224 14.756C19.4082 14.7127 19.6558 14.8424 19.8512 15.045C20.2753 15.4851 20.2175 15.7877 20.137 15.9769C19.7936 16.7849 18.1102 17.5066 16.3103 17.6825ZM34.2267 17.723H19.5585C20.2425 17.3568 20.7686 16.8922 21.0015 16.3443C21.376 15.463 20.8652 14.7435 20.5273 14.393C20.0874 13.9366 19.5527 13.7411 18.9821 13.8273C17.8227 14.0024 16.7039 15.3476 15.9583 16.4674V11.4696H33.1318C33.7355 11.4696 34.2267 11.9607 34.2267 12.5645V17.723H34.2267ZM35.9795 18.0607L35.166 20.0689V16.5498L35.3759 16.6348C35.5094 16.6884 35.6309 16.768 35.7333 16.8689C35.8358 16.9699 35.9173 17.0901 35.973 17.2227C36.0294 17.355 36.0591 17.4972 36.0602 17.641C36.0613 17.7849 36.0339 17.9275 35.9795 18.0607Z" fill="white"/>
<path d="M29.0107 25.8058V26.2563C29.0107 26.3809 29.0602 26.5003 29.1483 26.5884C29.2364 26.6765 29.3558 26.726 29.4804 26.726C29.6049 26.726 29.7244 26.6765 29.8124 26.5884C29.9005 26.5003 29.95 26.3809 29.95 26.2563V25.8187C30.304 25.7436 30.5465 25.5827 30.7019 25.4365C31.0084 25.148 31.1914 24.7127 31.1914 24.2719C31.1914 23.9109 31.079 23.5841 30.8662 23.3268C30.581 22.982 30.1332 22.7736 29.5352 22.7076C28.9777 22.6461 28.8944 22.3588 28.8944 22.193C28.8944 22.0951 28.9227 21.607 29.4803 21.607C29.8394 21.607 29.9948 21.8212 30.0332 21.8851C30.0686 21.9714 30.1289 22.0452 30.2064 22.0971C30.2839 22.1491 30.3751 22.1768 30.4684 22.1768C30.8222 22.1768 31.0264 21.8087 30.8909 21.4987C30.7791 21.2558 30.4713 20.8815 29.9499 20.7327V20.2733C29.9499 20.1488 29.9004 20.0293 29.8124 19.9413C29.7243 19.8532 29.6048 19.8037 29.4803 19.8037C29.3557 19.8037 29.2363 19.8532 29.1482 19.9413C29.0601 20.0293 29.0107 20.1488 29.0107 20.2733V20.7315C28.6909 20.8233 28.4242 21.0125 28.237 21.2861C27.9754 21.6685 27.9551 22.077 27.9551 22.193C27.9551 22.786 28.342 23.521 29.4322 23.6413C30.2521 23.7318 30.2521 24.1242 30.2521 24.272C30.2521 24.4161 30.2012 24.618 30.0582 24.7525C29.9221 24.8805 29.7112 24.9369 29.4316 24.9197C28.839 24.8836 28.7046 24.5144 28.6912 24.4725L28.691 24.4725C28.6402 24.2676 28.4555 24.1155 28.2348 24.1155C27.9119 24.1155 27.6814 24.4472 27.7942 24.7501C27.8421 24.9005 28.1112 25.6016 29.0107 25.8058Z" fill="white"/>
</g>
<defs>
<filter id="filter0_d_330_2223" x="0.7" y="2.20525" width="40.6" height="35.2099" filterUnits="userSpaceOnUse" color-interpolation-filters="sRGB">
<feFlood flood-opacity="0" result="BackgroundImageFix"/>
<feColorMatrix in="SourceAlpha" type="matrix" values="0 0 0 0 0 0 0 0 0 0 0 0 0 0 0 0 0 0 127 0" result="hardAlpha"/>
<feOffset/>
<feGaussianBlur stdDeviation="2.15"/>
<feComposite in2="hardAlpha" operator="out"/>
<feColorMatrix type="matrix" values="0 0 0 0 0.38561 0 0 0 0 0.236667 0 0 0 0 1 0 0 0 1 0"/>
<feBlend mode="normal" in2="BackgroundImageFix" result="effect1_dropShadow_330_2223"/>
<feBlend mode="normal" in="SourceGraphic" in2="effect1_dropShadow_330_2223" result="shape"/>
</filter>
</defs>
</svg>
