<svg width="45" height="40" viewBox="0 0 45 40" fill="none" xmlns="http://www.w3.org/2000/svg">
<g filter="url(#filter0_d_330_2189)">
<path d="M33.8804 22.6587C33.8136 22.6587 33.7475 22.6719 33.6858 22.6974C33.6241 22.723 33.5681 22.7604 33.5209 22.8076C33.4736 22.8549 33.4362 22.9109 33.4106 22.9726C33.3851 23.0343 33.3719 23.1004 33.372 23.1672V31.4416L25.629 24.2949L27.4846 22.7966C27.5895 22.7119 27.6565 22.5889 27.6708 22.4548C27.6851 22.3207 27.6455 22.1865 27.5608 22.0815C27.476 21.9766 27.3531 21.9097 27.219 21.8954C27.0849 21.8811 26.9506 21.9207 26.8457 22.0054L22.6357 25.4046C21.2814 26.4979 19.3594 26.5375 17.9613 25.5006L12.1827 21.2147C12.129 21.1749 12.0681 21.1461 12.0033 21.1298C11.9386 21.1136 11.8712 21.1103 11.8052 21.1201C11.7391 21.1299 11.6756 21.1526 11.6184 21.187C11.5611 21.2213 11.5112 21.2666 11.4714 21.3202C11.4316 21.3738 11.4028 21.4348 11.3866 21.4996C11.3703 21.5643 11.367 21.6317 11.3768 21.6977C11.3866 21.7638 11.4094 21.8272 11.4437 21.8845C11.478 21.9418 11.5233 21.9917 11.5769 22.0315L14.3567 24.0931L6.01692 31.4739V17.9078L9.81747 20.7266C9.9049 20.7917 10.011 20.8267 10.12 20.8267C10.2269 20.8267 10.3312 20.7931 10.418 20.7305C10.5047 20.6678 10.5695 20.5794 10.6031 20.4779C10.6367 20.3763 10.6374 20.2667 10.6051 20.1647C10.5728 20.0628 10.5091 19.9735 10.4232 19.9098L6.01692 16.6417V15.9485C6.01692 15.3323 6.51826 14.831 7.13437 14.831H22.4123C22.6932 14.831 22.9208 14.6034 22.9208 14.3225C22.9208 14.0417 22.6932 13.8141 22.4123 13.8141H7.13437C5.95746 13.8141 5 14.7716 5 15.9485V32.6029C5 32.607 5.00027 32.6111 5.00034 32.6153L5.00054 32.6246C5.01227 33.7915 5.96471 34.7374 7.13437 34.7374H27.8265C28.1074 34.7374 28.335 34.5098 28.335 34.2289C28.335 33.9481 28.1074 33.7205 27.8265 33.7205H7.13437C6.59032 33.7205 6.13637 33.3294 6.03746 32.8137L15.1915 24.7124L17.3556 26.3174C18.1886 26.936 19.1987 27.2698 20.2362 27.2692C21.3138 27.2692 22.39 26.9101 23.2746 26.1959L24.8291 24.9407L33.3522 32.8076C33.2558 33.3263 32.8006 33.7206 32.2544 33.7206H29.9933C29.7124 33.7206 29.4848 33.9481 29.4848 34.229C29.4848 34.5099 29.7124 34.7375 29.9933 34.7375H32.2544C33.4217 34.7375 34.3726 33.7954 34.3881 32.6316V32.6311C34.3882 32.6217 34.3887 32.6125 34.3887 32.603V23.1672C34.3888 23.1004 34.3756 23.0343 34.3501 22.9726C34.3246 22.9109 34.2871 22.8549 34.2399 22.8076C34.1927 22.7604 34.1367 22.723 34.075 22.6974C34.0133 22.6719 33.9472 22.6587 33.8804 22.6587Z" fill="white"/>
<path d="M34.7944 15.414V12.3986C34.7944 10.1385 33.3255 8.21632 31.2926 7.53302V6.9211C31.2926 6.02174 30.5609 5.29004 29.6615 5.29004C28.7622 5.29004 28.0305 6.02174 28.0305 6.9211V7.53207C27.3716 7.75289 26.7646 8.10533 26.2462 8.56797C26.1474 8.65825 26.0883 8.7838 26.0815 8.91741C26.0747 9.05102 26.1208 9.18193 26.2099 9.28176C26.2989 9.3816 26.4237 9.44231 26.5573 9.45075C26.6908 9.45919 26.8222 9.41468 26.9232 9.32686C27.6766 8.65403 28.6515 8.28233 29.6616 8.28276C31.9311 8.28276 33.7774 10.1291 33.7774 12.3986V15.4876C33.7774 15.5364 33.7845 15.585 33.7983 15.6317L34.3991 17.6648L34.3928 17.6701H24.9279L24.9247 17.6625L25.4172 15.9961H31.3857C31.6665 15.9961 31.8941 15.7685 31.8941 15.4876C31.8941 15.2067 31.6665 14.9791 31.3857 14.9791H25.5457V12.3987C25.5452 11.9013 25.6353 11.408 25.8114 10.9429C25.835 10.8804 25.8461 10.8139 25.8441 10.7472C25.842 10.6805 25.8268 10.6148 25.7993 10.5539C25.7719 10.4931 25.7327 10.4382 25.6841 10.3925C25.6354 10.3467 25.5782 10.3111 25.5158 10.2874C25.4533 10.2638 25.3868 10.2526 25.3201 10.2547C25.2533 10.2567 25.1876 10.2719 25.1267 10.2994C25.0659 10.3269 25.011 10.366 24.9653 10.4147C24.9196 10.4634 24.8839 10.5206 24.8603 10.5831C24.6406 11.1631 24.5283 11.7783 24.5288 12.3986V15.4141L23.9495 17.3742C23.8572 17.6865 23.916 18.0155 24.111 18.2765C24.306 18.5374 24.6046 18.6871 24.9304 18.6871H27.8084C27.6695 18.954 27.597 19.2505 27.5972 19.5515C27.5972 20.5889 28.4412 21.4328 29.4786 21.4328H29.8446C30.882 21.4328 31.7259 20.5889 31.7259 19.5515C31.7259 19.24 31.6494 18.9461 31.5147 18.6871H34.3928C34.7186 18.6871 35.0173 18.5374 35.2123 18.2765C35.4072 18.0155 35.4661 17.6866 35.3737 17.3742L34.7944 15.414ZM29.6616 7.26577C29.4552 7.26577 29.2503 7.2794 29.0474 7.3038V6.9211C29.0474 6.58247 29.3229 6.30696 29.6616 6.30696C30.0003 6.30696 30.2758 6.5824 30.2758 6.9211V7.3038C30.072 7.27889 29.8669 7.26619 29.6616 7.26577ZM30.709 19.5514C30.709 20.028 30.3212 20.4158 29.8446 20.4158H29.4786C29.0019 20.4158 28.6142 20.028 28.6142 19.5514C28.6142 19.0751 29.0012 18.6878 29.4773 18.687H29.846C30.3219 18.6877 30.709 19.0751 30.709 19.5514ZM24.4157 7.4539C22.9999 7.4539 21.8481 8.60566 21.8481 10.0214C21.8481 10.3023 22.0757 10.5299 22.3566 10.5299C22.6375 10.5299 22.8651 10.3023 22.8651 10.0214C22.8651 9.16646 23.5607 8.47082 24.4157 8.47082C24.6965 8.47082 24.9241 8.24323 24.9241 7.96236C24.9241 7.68149 24.6965 7.4539 24.4157 7.4539Z" fill="white"/>
<path d="M20.1651 10.5298C20.4459 10.5298 20.6735 10.3022 20.6735 10.0214C20.6735 7.9579 22.3523 6.27925 24.4156 6.27925C24.6965 6.27925 24.9241 6.05166 24.9241 5.77079C24.9241 5.48991 24.6965 5.26233 24.4156 5.26233C21.7915 5.26233 19.6566 7.39724 19.6566 10.0214C19.6566 10.1562 19.7102 10.2855 19.8055 10.3809C19.9009 10.4762 20.0302 10.5298 20.1651 10.5298ZM34.9076 7.45385C34.6267 7.45385 34.3991 7.68144 34.3991 7.96231C34.3991 8.24318 34.6267 8.47077 34.9076 8.47077C35.7625 8.47077 36.4582 9.1664 36.4582 10.0214C36.4582 10.3022 36.6858 10.5298 36.9666 10.5298C37.2475 10.5298 37.4751 10.3022 37.4751 10.0214C37.4751 8.60561 36.3233 7.45385 34.9076 7.45385Z" fill="white"/>
<path fill-rule="evenodd" clip-rule="evenodd" d="M20.7736 10.0214C20.7736 10.3575 20.5012 10.6298 20.1651 10.6298C20.0037 10.6298 19.849 10.5657 19.7349 10.4516C19.6207 10.3375 19.5566 10.1828 19.5566 10.0214C19.5566 7.34204 21.7363 5.16235 24.4157 5.16235C24.7518 5.16235 25.0241 5.43471 25.0241 5.77081C25.0241 6.10691 24.7518 6.37927 24.4157 6.37927C22.4075 6.37927 20.7736 8.01316 20.7736 10.0214ZM34.2991 7.96233C34.2991 7.62623 34.5715 7.35387 34.9076 7.35387C36.3786 7.35387 37.5751 8.55041 37.5751 10.0214C37.5751 10.3575 37.3028 10.6298 36.9667 10.6298C36.6306 10.6298 36.3582 10.3575 36.3582 10.0214C36.3582 9.22166 35.7073 8.57079 34.9076 8.57079C34.5715 8.57079 34.2991 8.29843 34.2991 7.96233ZM20.6736 10.0214C20.6736 10.3023 20.446 10.5298 20.1651 10.5298C20.0302 10.5298 19.9009 10.4763 19.8056 10.3809C19.7102 10.2856 19.6566 10.1562 19.6566 10.0214C19.6566 7.39727 21.7916 5.26235 24.4157 5.26235C24.6965 5.26235 24.9241 5.48994 24.9241 5.77081C24.9241 6.05168 24.6965 6.27927 24.4157 6.27927C22.3523 6.27927 20.6736 7.95793 20.6736 10.0214ZM34.3991 7.96233C34.3991 7.68146 34.6267 7.45387 34.9076 7.45387C36.3234 7.45387 37.4751 8.60563 37.4751 10.0214C37.4751 10.3023 37.2475 10.5298 36.9667 10.5298C36.6858 10.5298 36.4582 10.3023 36.4582 10.0214C36.4582 9.16643 35.7626 8.47079 34.9076 8.47079C34.6267 8.47079 34.3991 8.24321 34.3991 7.96233Z" fill="white"/>
<path d="M34.9076 5.26233C34.6268 5.26233 34.3992 5.48991 34.3992 5.77079C34.3992 6.05166 34.6268 6.27925 34.9076 6.27925C36.9711 6.27925 38.6497 7.95797 38.6497 10.0214C38.6497 10.3022 38.8773 10.5298 39.1582 10.5298C39.4391 10.5298 39.6667 10.3022 39.6667 10.0214C39.6667 7.39724 37.5317 5.26233 34.9076 5.26233Z" fill="white"/>
<path fill-rule="evenodd" clip-rule="evenodd" d="M34.2991 5.77081C34.2991 5.43471 34.5714 5.16235 34.9075 5.16235C37.5869 5.16235 39.7666 7.34204 39.7666 10.0214C39.7666 10.3575 39.4942 10.6298 39.1581 10.6298C38.822 10.6298 38.5496 10.3575 38.5496 10.0214C38.5496 8.01322 36.9158 6.37927 34.9075 6.37927C34.5714 6.37927 34.2991 6.10691 34.2991 5.77081ZM34.3991 5.77081C34.3991 5.48994 34.6267 5.26235 34.9075 5.26235C37.5316 5.26235 39.6666 7.39727 39.6666 10.0214C39.6666 10.3023 39.439 10.5298 39.1581 10.5298C38.8772 10.5298 38.6496 10.3023 38.6496 10.0214C38.6496 7.95799 36.971 6.27927 34.9075 6.27927C34.6267 6.27927 34.3991 6.05168 34.3991 5.77081Z" fill="white"/>
</g>
<defs>
<filter id="filter0_d_330_2189" x="0.7" y="0.862353" width="43.3666" height="38.1751" filterUnits="userSpaceOnUse" color-interpolation-filters="sRGB">
<feFlood flood-opacity="0" result="BackgroundImageFix"/>
<feColorMatrix in="SourceAlpha" type="matrix" values="0 0 0 0 0 0 0 0 0 0 0 0 0 0 0 0 0 0 127 0" result="hardAlpha"/>
<feOffset/>
<feGaussianBlur stdDeviation="2.15"/>
<feComposite in2="hardAlpha" operator="out"/>
<feColorMatrix type="matrix" values="0 0 0 0 0.38561 0 0 0 0 0.236667 0 0 0 0 1 0 0 0 1 0"/>
<feBlend mode="normal" in2="BackgroundImageFix" result="effect1_dropShadow_330_2189"/>
<feBlend mode="normal" in="SourceGraphic" in2="effect1_dropShadow_330_2189" result="shape"/>
</filter>
</defs>
</svg>
