<svg width="40" height="45" viewBox="0 0 40 45" fill="none" xmlns="http://www.w3.org/2000/svg">
<g filter="url(#filter0_d_330_2214)">
<path d="M30.6981 18.9888H18.0765C18.6602 18.2957 19.0148 17.3917 19.0148 16.4032C19.0148 14.2278 17.3016 12.458 15.1957 12.458C13.0898 12.458 11.3766 14.2278 11.3766 16.4032C11.3766 17.3917 11.7312 18.2957 12.3148 18.9888H9.30189C7.48123 18.9888 6 20.5189 6 22.3997V26.4244C6 26.8012 6.29565 27.1066 6.66038 27.1066C7.0251 27.1066 7.32075 26.8012 7.32075 26.4244V22.3997C7.32075 21.2712 8.20949 20.3531 9.30189 20.3531H27.7925C28.8848 20.3531 29.7736 21.2712 29.7736 22.3997V26.0834H22.9057C21.085 26.0834 19.6038 27.6135 19.6038 29.4943C19.6038 31.3751 21.085 32.9052 22.9057 32.9052H29.7736V36.5889C29.7736 37.7174 28.8848 38.6355 27.7925 38.6355H9.30189C8.20949 38.6355 7.32075 37.7174 7.32075 36.5889V32.5588C7.32075 32.182 7.0251 31.8766 6.66038 31.8766C6.29565 31.8766 6 32.182 6 32.5588V36.5889C6 38.4697 7.48123 39.9998 9.30189 39.9998H30.6981C32.5188 39.9998 34 38.4697 34 36.5889V22.3997C34 20.5189 32.5188 18.9888 30.6981 18.9888ZM15.1957 13.8224C16.5733 13.8224 17.694 14.9802 17.694 16.4032C17.694 17.8263 16.5733 18.9841 15.1957 18.9841C13.8181 18.9841 12.6973 17.8263 12.6973 16.4032C12.6973 14.9802 13.8181 13.8224 15.1957 13.8224ZM30.4322 20.3531H30.6981C31.7905 20.3531 32.6792 21.2712 32.6792 22.3997V26.0834H31.0943V22.3997C31.0943 21.6324 30.8477 20.9236 30.4322 20.3531ZM20.9245 29.4943C20.9245 28.3658 21.8133 27.4478 22.9057 27.4478H32.6792V31.5408H22.9057C21.8133 31.5408 20.9245 30.6228 20.9245 29.4943ZM30.6981 38.6355H30.4322C30.8477 38.065 31.0943 37.3563 31.0943 36.5889V32.9052H32.6792V36.5889C32.6792 37.7174 31.7905 38.6355 30.6981 38.6355Z" fill="white"/>
<path d="M22.7366 28.8122C22.5623 28.8122 22.3919 28.8852 22.2691 29.0121C22.1462 29.139 22.0762 29.315 22.0762 29.4944C22.0762 29.6738 22.1462 29.8498 22.2691 29.9767C22.3934 30.1042 22.5614 30.176 22.7366 30.1766C22.9103 30.1766 23.08 30.1036 23.2035 29.9767C23.3263 29.8498 23.397 29.6738 23.397 29.4944C23.397 29.315 23.3263 29.139 23.2035 29.0121C23.0794 28.8846 22.9116 28.8128 22.7366 28.8122ZM24.8043 14.3909C26.9102 14.3909 28.6234 12.6211 28.6234 10.4457C28.6234 8.27036 26.9102 6.50052 24.8043 6.50052C22.6984 6.50052 20.9852 8.27029 20.9852 10.4457C20.9852 12.6211 22.6984 14.3909 24.8043 14.3909ZM24.8043 7.86494C26.1819 7.86494 27.3027 9.02266 27.3027 10.4458C27.3027 11.8688 26.1819 13.0266 24.8043 13.0266C23.4267 13.0266 22.306 11.8688 22.306 10.4458C22.306 9.02266 23.4267 7.86494 24.8043 7.86494ZM18.3544 11.725C18.7191 11.725 19.0148 11.4196 19.0148 11.0428V5.68218C19.0148 5.30541 18.7191 5 18.3544 5C17.9897 5 17.694 5.30541 17.694 5.68218V11.0428C17.694 11.4196 17.9897 11.725 18.3544 11.725ZM15.1846 9.36594C15.5493 9.36594 15.845 9.06052 15.845 8.68376V5.68218C15.845 5.30541 15.5493 5 15.1846 5C14.8199 5 14.5242 5.30541 14.5242 5.68218V8.68376C14.5242 9.06052 14.8199 9.36594 15.1846 9.36594ZM6.66038 30.1766C6.83406 30.1766 7.00443 30.1036 7.12726 29.9767C7.25009 29.8498 7.32075 29.6738 7.32075 29.4944C7.32075 29.315 7.25009 29.139 7.12726 29.0121C7.00443 28.8852 6.83472 28.8122 6.66038 28.8122C6.4867 28.8122 6.31632 28.8852 6.19349 29.0121C6.07066 29.139 6 29.315 6 29.4944C6 29.6738 6.07066 29.8498 6.19349 29.9767C6.31632 30.1036 6.48663 30.1766 6.66038 30.1766Z" fill="white"/>
</g>
<defs>
<filter id="filter0_d_330_2214" x="1.7" y="0.7" width="36.6" height="43.5999" filterUnits="userSpaceOnUse" color-interpolation-filters="sRGB">
<feFlood flood-opacity="0" result="BackgroundImageFix"/>
<feColorMatrix in="SourceAlpha" type="matrix" values="0 0 0 0 0 0 0 0 0 0 0 0 0 0 0 0 0 0 127 0" result="hardAlpha"/>
<feOffset/>
<feGaussianBlur stdDeviation="2.15"/>
<feComposite in2="hardAlpha" operator="out"/>
<feColorMatrix type="matrix" values="0 0 0 0 0.38561 0 0 0 0 0.236667 0 0 0 0 1 0 0 0 1 0"/>
<feBlend mode="normal" in2="BackgroundImageFix" result="effect1_dropShadow_330_2214"/>
<feBlend mode="normal" in="SourceGraphic" in2="effect1_dropShadow_330_2214" result="shape"/>
</filter>
</defs>
</svg>
