<svg width="18" height="18" viewBox="0 0 18 18" fill="none" xmlns="http://www.w3.org/2000/svg">
<path d="M9 0C4.02963 0 0 4.02963 0 9C0 13.9704 4.02963 18 9 18C13.9704 18 18 13.9704 18 9C18 4.02963 13.9704 0 9 0ZM11.5852 12.5481C11.1926 13.0259 10.6815 13.3481 10.0852 13.5111C9.82593 13.5815 9.70741 13.7185 9.72222 13.9889C9.73333 14.2556 9.72222 14.5185 9.71852 14.7852C9.71852 15.0222 9.5963 15.1481 9.36296 15.1556C9.21111 15.1593 9.05926 15.163 8.90741 15.163C8.77407 15.163 8.64074 15.163 8.50741 15.1593C8.25556 15.1556 8.13704 15.0111 8.13704 14.7667C8.13333 14.5741 8.13333 14.3778 8.13333 14.1852C8.12963 13.7556 8.11481 13.7407 7.7037 13.6741C7.17778 13.5889 6.65926 13.4704 6.17778 13.237C5.8 13.0519 5.75926 12.9593 5.86667 12.5593C5.94815 12.263 6.02963 11.9667 6.12222 11.6741C6.18889 11.4593 6.25185 11.363 6.36667 11.363C6.43333 11.363 6.51852 11.3963 6.63333 11.4556C7.16667 11.7333 7.73333 11.8889 8.32963 11.963C8.42963 11.9741 8.52963 11.9815 8.62963 11.9815C8.90741 11.9815 9.17778 11.9296 9.44074 11.8148C10.1037 11.5259 10.2074 10.7593 9.64815 10.3C9.45926 10.1444 9.24074 10.0296 9.01481 9.92963C8.43333 9.67407 7.82963 9.48148 7.28148 9.15185C6.39259 8.61852 5.82963 7.88889 5.8963 6.80741C5.97037 5.58519 6.66296 4.82222 7.78519 4.41481C8.24815 4.24815 8.25185 4.25185 8.25185 3.77037C8.25185 3.60741 8.24815 3.44444 8.25556 3.27778C8.26667 2.91481 8.32593 2.85185 8.68889 2.84074H9.11111C9.8 2.84074 9.8 2.87037 9.8037 3.61481C9.80741 4.16296 9.80741 4.16296 10.3519 4.24815C10.7704 4.31481 11.1667 4.43704 11.5519 4.60741C11.763 4.7 11.8444 4.84815 11.7778 5.07407C11.6815 5.40741 11.5889 5.74444 11.4852 6.07407C11.4185 6.27407 11.3556 6.36667 11.237 6.36667C11.1704 6.36667 11.0889 6.34074 10.9852 6.28889C10.4519 6.02963 9.89259 5.9037 9.30741 5.9037C9.23333 5.9037 9.15556 5.90741 9.08148 5.91111C8.90741 5.92222 8.73704 5.94444 8.57407 6.01481C7.9963 6.26667 7.9037 6.9037 8.3963 7.2963C8.64444 7.4963 8.92963 7.63704 9.22222 7.75926C9.73333 7.97037 10.2444 8.17407 10.7296 8.44074C12.2556 9.29259 12.6704 11.2296 11.5852 12.5481Z" fill="#E6D31F"/>
</svg>
